<svg xmlns="http://www.w3.org/2000/svg" width="1001.18" height="460.462" viewBox="0 0 1001.18 460.462">
  <g id="Grupo_60730" data-name="Grupo 60730" transform="translate(-299.283 -368.102)">
    <g id="Grupo_60601" data-name="Grupo 60601" transform="translate(329.392 386.807)">
      <path id="Trazado_105015" data-name="Trazado 105015" d="M1204.669,405.926C1126.427,261.657,762,233.269,459.866,307.992s-308.144,359.039,199.88,367.5S1256.235,501.009,1204.669,405.926Z" transform="translate(-251.601 -239.113)" fill="#fae9dc"/>
      <g id="Grupo_60600" data-name="Grupo 60600" transform="translate(28.517)">
        <path id="Trazado_105016" data-name="Trazado 105016" d="M611.546,559.352c-56.559,0-109.044-9.145-158.027-36.565-23.767-13.3-39.187-27.182-47.145-42.426-7.1-13.611-8.053-28.019-2.9-44.047,9.561-29.737,38.177-59.626,68.473-91.269,10.537-11.006,21.433-22.387,31.321-33.64,18.062-20.556,31.241-43.261,43.986-65.219,33.463-57.65,65.07-112.1,178.13-124.653,133.986-14.874,182.751,14.574,244.489,51.855,32.509,19.632,69.357,41.882,124.513,61.465,110.146,39.107,178.09,73.179,213.826,107.228,43.674,41.612,39.728,83.906-12.066,129.3-28.5,24.978-65.263,40.094-115.69,47.57-44.877,6.654-95.016,6.432-148.094,6.2-52.45-.233-106.681-.47-161.263,5.8-31.213,3.586-61.313,7.84-90.422,11.953C720.494,551.405,664.25,559.352,611.546,559.352ZM725.7,122.249l.313.717C614.634,135.329,583.262,189.377,550.049,246.6c-12.772,22-25.979,44.756-44.119,65.4-9.907,11.275-20.814,22.667-31.361,33.683C414.722,408.191,358.2,467.233,455.68,521.8c93.421,52.3,200.374,37.182,324.215,19.682,29.143-4.118,59.277-8.376,90.56-11.971,54.914-6.31,109.321-6.07,161.935-5.838,107.159.472,199.716.88,261.235-53.033,51.254-44.918,55.184-86.747,12.016-127.877-35.513-33.836-103.173-67.746-212.93-106.714-55.47-19.694-92.447-42.024-125.072-61.725-61.1-36.9-109.368-66.045-241.63-51.363Z" transform="translate(-400.215 -117.596)" fill="#f0cdb6"/>
      </g>
      <path id="Trazado_105017" data-name="Trazado 105017" d="M1360,603.837c76.427-18.548,139.17-47.891,201.536-30.841s8.957,69.006,67.094,92.176,182.3,63.054,118.121,131.894-252.783,28.585-305.077,13.305-97.62,72.233-242.685,44.859-40.021-91.652-40.156-117.116-94.232-67.261-29.773-95.276S1251.194,630.244,1360,603.837Z" transform="translate(-942.451 -481.461)" fill="#fff6f0"/>
    </g>
    <g id="Grupo_60605" data-name="Grupo 60605" transform="translate(1216.452 490.163)">
      <path id="Trazado_105018" data-name="Trazado 105018" d="M4837.9,701.511c20.435-41.619,61.188-56.173,71.336-36.865s-61.312,40.559-62.922,61.371S4837.9,701.511,4837.9,701.511Z" transform="translate(-4837.896 -656.224)" fill="#ffca28"/>
      <g id="Grupo_60602" data-name="Grupo 60602" transform="translate(6.429 11.436)">
        <path id="Trazado_105019" data-name="Trazado 105019" d="M4872.029,764.477a.581.581,0,0,1-.576-.506c-1.468-11.138,26.905-41.288,48.677-48.124a.581.581,0,1,1,.348,1.11c-9.976,3.132-22.244,11.5-32.82,22.385-9.626,9.907-15.675,19.744-15.051,24.478a.582.582,0,0,1-.5.653A.614.614,0,0,1,4872.029,764.477Z" transform="translate(-4871.398 -715.821)" fill="#ffd194"/>
      </g>
      <g id="Grupo_60603" data-name="Grupo 60603" transform="translate(33.185 22.987)">
        <path id="Trazado_105020" data-name="Trazado 105020" d="M5011.417,777.815a.582.582,0,0,1-.022-1.163l16.142-.636a.581.581,0,1,1,.046,1.162l-16.142.635Z" transform="translate(-5010.835 -776.016)" fill="#ffd194"/>
      </g>
      <g id="Grupo_60604" data-name="Grupo 60604" transform="translate(22.724 32.653)">
        <path id="Trazado_105021" data-name="Trazado 105021" d="M4956.9,827.822a.582.582,0,0,1-.009-1.163l16.047-.266h.01a.582.582,0,0,1,.01,1.163l-16.047.266Z" transform="translate(-4956.32 -826.392)" fill="#ffd194"/>
      </g>
    </g>
    <g id="Grupo_60610" data-name="Grupo 60610" transform="translate(299.283 487.032)">
      <path id="Trazado_105025" data-name="Trazado 105025" d="M318.331,671.066c-35.26-42.5-71.489-35.106-74.43-15.626s56.245,32.872,62.455,55.434S318.331,671.066,318.331,671.066Z" transform="translate(-243.795 -639.905)" fill="#ffca28"/>
      <g id="Grupo_60609" data-name="Grupo 60609" transform="translate(17.608 12.282)">
        <path id="Trazado_105026" data-name="Trazado 105026" d="M391.152,745.174a.629.629,0,0,0,.288-.163.609.609,0,0,0,0-.871c-.334-.328-33.678-32.913-55.053-40.194a.632.632,0,0,0-.8.381.608.608,0,0,0,.381.783c21.108,7.19,54.252,39.58,54.584,39.906A.627.627,0,0,0,391.152,745.174Z" transform="translate(-335.556 -703.912)" fill="#ffd194"/>
      </g>
    </g>
    <g id="Grupo_60614" data-name="Grupo 60614" transform="translate(306.518 675.817)">
      <path id="Trazado_105027" data-name="Trazado 105027" d="M225.1,1670.112c-7.575-12.069-91.008-13.43-92.635-29.429s27.545-29.336,87.106,2.233c0,0,1.747,5.243,3.6,11.315q.237.763.469,1.549C226.7,1665.974,229.665,1677.391,225.1,1670.112Z" transform="translate(-132.398 -1623.73)" fill="#ffab3b"/>
      <g id="Grupo_60611" data-name="Grupo 60611" transform="translate(16.318 11.163)">
        <path id="Trazado_105028" data-name="Trazado 105028" d="M292.36,1702.791c-14.619-7.548-57.487-21.077-74.161-19.6a.694.694,0,0,1-.755-.532.575.575,0,0,1,.557-.636c11.764-1.043,33.942,5.1,42.928,7.786,12.586,3.762,24.131,8.063,30.962,11.434Q292.128,1702.005,292.36,1702.791Z" transform="translate(-217.437 -1681.904)" fill="#ffd194"/>
      </g>
      <g id="Grupo_60612" data-name="Grupo 60612" transform="translate(20.993 12.815)">
        <path id="Trazado_105029" data-name="Trazado 105029" d="M242.421,1698.672a.582.582,0,0,0,.243-.072l12.595-6.994a.582.582,0,0,0-.566-1.018l-12.595,6.994a.582.582,0,0,0,.323,1.09Z" transform="translate(-241.799 -1690.514)" fill="#ffd194"/>
      </g>
      <g id="Grupo_60613" data-name="Grupo 60613" transform="translate(32.038 15.432)">
        <path id="Trazado_105030" data-name="Trazado 105030" d="M299.981,1712.852a.578.578,0,0,0,.275-.091l11.751-7.537a.582.582,0,0,0-.629-.98l-11.751,7.536a.582.582,0,0,0,.354,1.071Z" transform="translate(-299.359 -1704.152)" fill="#ffd194"/>
      </g>
    </g>
    <ellipse id="Elipse_1627" data-name="Elipse 1627" cx="29.007" cy="6.947" rx="29.007" ry="6.947" transform="translate(403.927 756.349)" fill="#f0cdb6"/>
    <ellipse id="Elipse_1628" data-name="Elipse 1628" cx="29.007" cy="6.947" rx="29.007" ry="6.947" transform="translate(636.288 756.349)" fill="#f0cdb6"/>
    <ellipse id="Elipse_1629" data-name="Elipse 1629" cx="29.007" cy="6.947" rx="29.007" ry="6.947" transform="translate(873.003 756.349)" fill="#f0cdb6"/>
    <ellipse id="Elipse_1630" data-name="Elipse 1630" cx="29.007" cy="6.947" rx="29.007" ry="6.947" transform="translate(1113.636 756.349)" fill="#f0cdb6"/>
    <g id="Grupo_60650" data-name="Grupo 60650" transform="translate(682.741 465.49)">
      <g id="Grupo_60639" data-name="Grupo 60639" transform="translate(30.226 0)">
        <path id="Trazado_105081" data-name="Trazado 105081" d="M2266.169,543.512c3.427-2.275,4.75-9.628,2.628-11.286s-4.182.563-4.182.563-.881-5.919-4.743-5.057-3.684,3.742-3.684,3.742-3.412-1.728-5.211,2.3,2.53,6.181,2.53,6.181,8.165,3.8,9.256,3.664S2266.169,543.512,2266.169,543.512Z" transform="translate(-2250.54 -527.647)" fill="#40312a"/>
        <path id="Trazado_105082" data-name="Trazado 105082" d="M2267.4,601.293a7.9,7.9,0,0,0,.508,4.413,6.278,6.278,0,0,0,2.137-1C2270.024,604.6,2267.4,601.293,2267.4,601.293Z" transform="translate(-2264.062 -587.161)" fill="#fd9b73"/>
        <path id="Trazado_105083" data-name="Trazado 105083" d="M2272.98,589.608a4.462,4.462,0,0,0,2.608-3.055l0-.006s.575.739,1.268,1.667a14.888,14.888,0,0,1,2.018,4.115c.057.6,3.191-2.973,3.367-4.133s-4.893-5.57-4.893-5.57,1.775-1.593.94-3.133-2.892,1.262-5.465,1.521-3.988-2.671-3.988-2.671a3.367,3.367,0,0,1-1.21,2.406c-1.13.753-1.624.175-1.624.175C2266.73,586.513,2270.91,590.356,2272.98,589.608Z" transform="translate(-2263.037 -568.615)" fill="#fec6ab"/>
        <path id="Trazado_105084" data-name="Trazado 105084" d="M2315.964,612.29s.575.739,1.268,1.667a9.893,9.893,0,0,0-.509-3.758A7.568,7.568,0,0,1,2315.964,612.29Z" transform="translate(-2303.41 -594.358)" fill="#fd9b73"/>
      </g>
      <path id="Trazado_105085" data-name="Trazado 105085" d="M2179.753,682.631c-2.44-.922-7.1.093-7.706,2.206s5.628,1.55,7.77.8S2179.753,682.631,2179.753,682.631Z" transform="translate(-2156.851 -652.616)" fill="#fec6ab"/>
      <g id="Grupo_60643" data-name="Grupo 60643" transform="translate(116.675 26.65)">
        <path id="Trazado_105086" data-name="Trazado 105086" d="M2703.069,666.869a2.5,2.5,0,0,1,1.673-.305c2.054.333,8.839,6.015,9.015,8.517a.957.957,0,0,1-.208.708c-.724.847-2.777.547-4.919-.1-.141-.043-.282-.086-.422-.133-.5-.159-1-.337-1.482-.515-.154-.055-.3-.113-.447-.169a31.125,31.125,0,0,1-3.616-1.636c-1.149-.678-1.515-.858-1.547-1.105C2700.808,669.733,2701.678,667.653,2703.069,666.869Z" transform="translate(-2701.054 -666.531)" fill="#1a7eb4"/>
        <path id="Trazado_105087" data-name="Trazado 105087" d="M2711.554,666.869a2.5,2.5,0,0,1,1.673-.305c2.054.333,8.839,6.015,9.015,8.517l0,0C2715.49,670.7,2712.618,668.268,2711.554,666.869Z" transform="translate(-2709.539 -666.531)" fill="#12405b"/>
        <g id="Grupo_60642" data-name="Grupo 60642" transform="translate(4.568 5.868)">
          <g id="Grupo_60640" data-name="Grupo 60640">
            <path id="Trazado_105088" data-name="Trazado 105088" d="M2724.859,697.225a.114.114,0,0,1,.108-.115.13.13,0,0,1,.038.009.11.11,0,0,1,.077.1,3.473,3.473,0,0,0,.881,2.537c-.154-.055-.3-.113-.447-.169A4.112,4.112,0,0,1,2724.859,697.225Z" transform="translate(-2724.859 -697.11)" fill="#fff"/>
          </g>
          <g id="Grupo_60641" data-name="Grupo 60641" transform="translate(1.889 0.631)">
            <path id="Trazado_105089" data-name="Trazado 105089" d="M2734.7,700.511a.111.111,0,0,1,.108-.115.107.107,0,0,1,.034.007.111.111,0,0,1,.077.1,3.462,3.462,0,0,0,.9,2.555c-.141-.043-.282-.086-.422-.133A4.016,4.016,0,0,1,2734.7,700.511Z" transform="translate(-2734.703 -700.396)" fill="#fff"/>
          </g>
        </g>
      </g>
      <path id="Trazado_105090" data-name="Trazado 105090" d="M2578.752,674.694c4.62.7,23.651-.918,24.44-1.823s1.05-3.819-.1-4.6-11.606-2.5-15.927-.551S2578.752,674.694,2578.752,674.694Z" transform="translate(-2485.546 -640.113)" fill="#367394"/>
      <g id="Grupo_60647" data-name="Grupo 60647" transform="translate(109.38 12.386)">
        <path id="Trazado_105091" data-name="Trazado 105091" d="M2665.186,592.494a2.5,2.5,0,0,1,1.682-.255c2.043.395,8.655,6.277,8.756,8.783a.96.96,0,0,1-.229.7c-.75.825-2.792.463-4.915-.246-.14-.047-.28-.094-.418-.145-.495-.174-.986-.366-1.466-.559-.152-.06-.3-.122-.441-.183a31.177,31.177,0,0,1-3.566-1.744c-1.128-.712-1.489-.9-1.513-1.151C2662.84,595.288,2663.772,593.236,2665.186,592.494Z" transform="translate(-2663.04 -592.192)" fill="#1a7eb4"/>
        <path id="Trazado_105092" data-name="Trazado 105092" d="M2674.224,592.494a2.5,2.5,0,0,1,1.682-.255c2.043.395,8.655,6.277,8.756,8.783l-.005,0C2678.043,596.441,2675.246,593.924,2674.224,592.494Z" transform="translate(-2672.078 -592.192)" fill="#12405b"/>
        <g id="Grupo_60646" data-name="Grupo 60646" transform="translate(4.529 5.909)">
          <g id="Grupo_60644" data-name="Grupo 60644">
            <path id="Trazado_105093" data-name="Trazado 105093" d="M2686.642,623.1a.114.114,0,0,1,.111-.112.131.131,0,0,1,.038.01.111.111,0,0,1,.075.1,3.472,3.472,0,0,0,.8,2.562c-.152-.06-.3-.122-.442-.183A4.113,4.113,0,0,1,2686.642,623.1Z" transform="translate(-2686.642 -622.983)" fill="#fff"/>
          </g>
          <g id="Grupo_60645" data-name="Grupo 60645" transform="translate(1.869 0.687)">
            <path id="Trazado_105094" data-name="Trazado 105094" d="M2696.384,626.674a.111.111,0,0,1,.112-.112.1.1,0,0,1,.034.009.11.11,0,0,1,.074.1,3.458,3.458,0,0,0,.822,2.581c-.14-.047-.28-.094-.418-.145A4.014,4.014,0,0,1,2696.384,626.674Z" transform="translate(-2696.384 -626.562)" fill="#fff"/>
          </g>
        </g>
      </g>
      <path id="Trazado_105095" data-name="Trazado 105095" d="M2477.183,616.522c-.765,1.174-14.338,14.658-18.851,15.6s-19.579.757-28.388-3.2c0,0-1.42-1.783,1.138-5.607.07-.109.139-.218.217-.328a23.161,23.161,0,0,1,2.954-3.357c6.633-6.379,20.864,2.663,20.864,2.663s15.03-9.538,19.561-9.643a2.783,2.783,0,0,1,1.408.338,2.97,2.97,0,0,1,.593.454A2.475,2.475,0,0,1,2477.183,616.522Z" transform="translate(-2364.975 -596.333)" fill="#5091b9"/>
      <g id="Grupo_60648" data-name="Grupo 60648" transform="translate(66.087 16.649)">
        <path id="Trazado_105096" data-name="Trazado 105096" d="M2483.041,614.862c-3.073,1.555-6.341,4.47-9.513,7.3-3.929,3.495-7.638,6.8-10.7,7.3a9.982,9.982,0,0,1-1.407.12c-3.257.069-7.742-1.056-12.462-2.24a70.969,70.969,0,0,0-11.538-2.277l.02-.333.02-.342c.063.008.135.006.2.014a73.365,73.365,0,0,1,11.467,2.288c5.135,1.291,10.45,2.624,13.6,2.108,2.863-.465,6.5-3.711,10.351-7.141,3.11-2.768,6.3-5.618,9.37-7.254A2.977,2.977,0,0,1,2483.041,614.862Z" transform="translate(-2437.424 -614.408)" fill="#fff"/>
      </g>
      <path id="Trazado_105097" data-name="Trazado 105097" d="M2235.389,619.385c-4.739,3.742-10.2,10.065-11.814,10.313-9.4,1.442-12.383,1.284-13.212,1.546-1.018.322-1.316,2.721.074,3.5s10.694,2.282,16.1,1.2,7.505-2.914,7.505-2.914,16.945,1.583,18.07,1.316,5.2-8.886,4.309-9.292C2242.409,618.634,2235.389,619.385,2235.389,619.385Z" transform="translate(-2187.145 -601.76)" fill="#ff643b"/>
      <g id="Grupo_60649" data-name="Grupo 60649" transform="translate(0 14.686)">
        <path id="Trazado_105098" data-name="Trazado 105098" d="M2126.445,624.521h-23.927l-9.4-19.044a.9.9,0,0,1,1.609-.795l8.907,18.044h22.812a.9.9,0,0,1,0,1.795Z" transform="translate(-2093.024 -604.182)" fill="#1d3442"/>
      </g>
    </g>
    <g id="Grupo_60657" data-name="Grupo 60657" transform="translate(853.137 509.53)">
      <g id="Grupo_60651" data-name="Grupo 60651" transform="translate(32.243)">
        <path id="Trazado_105099" data-name="Trazado 105099" d="M3159.864,771.434c3.32-.993,6.191-6.595,4.888-8.451s-3.509-.573-3.509-.573.743-4.987-2.582-5.24-3.887,2.112-3.887,2.112-2.326-2.23-4.764.575.522,5.6.522,5.6,5.649,5.064,6.561,5.225S3159.864,771.434,3159.864,771.434Z" transform="translate(-3149.045 -757.151)" fill="#40312a"/>
        <path id="Trazado_105100" data-name="Trazado 105100" d="M3152.99,808.581a6.659,6.659,0,0,0-.674,3.681,5.291,5.291,0,0,0,1.968-.281C3154.293,811.888,3152.99,808.581,3152.99,808.581Z" transform="translate(-3151.653 -798.712)" fill="#fd9b73"/>
        <path id="Trazado_105101" data-name="Trazado 105101" d="M3159.636,803.33a3.759,3.759,0,0,0,2.852-1.822l0,0s.282.737.613,1.655a12.563,12.563,0,0,1,.617,3.812c-.1.5,3.3-1.613,3.728-2.5s-2.577-5.69-2.577-5.69,1.822-.848,1.527-2.295-2.641.307-4.778-.115-2.558-3.132-2.558-3.132a2.838,2.838,0,0,1-1.566,1.643c-1.095.329-1.352-.257-1.352-.257C3155.358,799.3,3157.784,803.425,3159.636,803.33Z" transform="translate(-3154.659 -786.31)" fill="#fec6ab"/>
        <path id="Trazado_105102" data-name="Trazado 105102" d="M3189.863,830.015s.282.737.613,1.655a8.333,8.333,0,0,0,.512-3.154A6.391,6.391,0,0,1,3189.863,830.015Z" transform="translate(-3182.031 -814.822)" fill="#fd9b73"/>
      </g>
      <path id="Trazado_105103" data-name="Trazado 105103" d="M2993.626,1084.968a2.576,2.576,0,0,1-1.619.673c-2.142.113-10.217-4.126-10.941-6.608a.988.988,0,0,1,.055-.759c.544-1.011,2.677-1.157,4.976-.976.152.012.3.025.454.041.538.05,1.078.121,1.6.195.167.022.329.048.487.073a32.1,32.1,0,0,1,4,.858c1.305.432,1.713.532,1.8.775C2995.278,1081.59,2994.856,1083.874,2993.626,1084.968Z" transform="translate(-2981.017 -1015.812)" fill="#1a7eb4"/>
      <path id="Trazado_105104" data-name="Trazado 105104" d="M2993.836,1092.54a2.577,2.577,0,0,1-1.619.673c-2.142.113-10.217-4.126-10.941-6.608l0,0C2989.034,1089.542,2992.458,1091.363,2993.836,1092.54Z" transform="translate(-2981.226 -1023.383)" fill="#12405b"/>
      <g id="Grupo_60654" data-name="Grupo 60654" transform="translate(5.08 61.487)">
        <g id="Grupo_60652" data-name="Grupo 60652" transform="translate(2.059 0.236)">
          <path id="Trazado_105105" data-name="Trazado 105105" d="M3019.888,1081.116a.117.117,0,0,1-.083.14.131.131,0,0,1-.04,0,.114.114,0,0,1-.1-.083,3.578,3.578,0,0,0-1.441-2.363c.167.022.329.048.487.073A4.234,4.234,0,0,1,3019.888,1081.116Z" transform="translate(-3018.223 -1078.81)" fill="#fff"/>
        </g>
        <g id="Grupo_60653" data-name="Grupo 60653">
          <path id="Trazado_105106" data-name="Trazado 105106" d="M3009.175,1079.9a.114.114,0,0,1-.083.14.107.107,0,0,1-.036,0,.113.113,0,0,1-.1-.083,3.567,3.567,0,0,0-1.464-2.377c.152.012.3.025.454.041A4.135,4.135,0,0,1,3009.175,1079.9Z" transform="translate(-3007.492 -1077.58)" fill="#fff"/>
        </g>
      </g>
      <path id="Trazado_105107" data-name="Trazado 105107" d="M3070.261,957.2c-4.178,10.228-23.821,4.368-23.821,4.368s-11.72,17.255-13.457,17.255a4.758,4.758,0,0,1-2.053-.57,4.481,4.481,0,0,1-.407-.217,4.275,4.275,0,0,1-1.99-2.035c-.325-1.194,5.752-18.666,12.263-22.247s16.712-2.17,16.712-2.17l5.526,2.432.416.181Z" transform="translate(-3019.406 -914.049)" fill="#5091b9"/>
      <g id="Grupo_60655" data-name="Grupo 60655" transform="translate(11.118 39.917)">
        <path id="Trazado_105108" data-name="Trazado 105108" d="M3071.891,965.391a.009.009,0,0,1-.009.009c-1.293,2.279-5.155,2.225-9.242,2.17-3.8-.054-8.094-.117-10.789,1.7-3.663,2.46-10.137,15.32-12.489,20.185a4.447,4.447,0,0,1-.407-.217c2.369-4.911,8.844-17.788,12.643-20.348,2.813-1.89,7.19-1.827,11.051-1.772,3.925.054,7.633.1,8.818-1.9.009-.018.018-.027.027-.045Z" transform="translate(-3038.955 -965.174)" fill="#fff"/>
      </g>
      <path id="Trazado_105109" data-name="Trazado 105109" d="M3177.058,842.953c-1.675,2.59-3.433,2.1-3.433,2.1s-5.485,17.58-5.241,19.127,13.592,6.674,14.895,5.453,3.988-7.081.977-15.545S3177.058,842.953,3177.058,842.953Z" transform="translate(-3132.424 -826.489)" fill="#79c5ee"/>
      <g id="Grupo_60656" data-name="Grupo 60656" transform="translate(12.613 27.333)">
        <path id="Trazado_105110" data-name="Trazado 105110" d="M3055.2,911.512l-8.352-11.129a.493.493,0,1,1,.789-.593l8.007,10.67,13.389-1.719a.493.493,0,0,1,.125.979Z" transform="translate(-3046.748 -899.593)" fill="#1d3442"/>
      </g>
      <path id="Trazado_105111" data-name="Trazado 105111" d="M3130.557,935.313c-2.3-.692-5.9,1-5.792,2.941s5.764.977,6.4.625S3130.557,935.313,3130.557,935.313Z" transform="translate(-3097.179 -900.998)" fill="#fec6ab"/>
      <path id="Trazado_105112" data-name="Trazado 105112" d="M3166.214,842.953c7.848,2.915,11.836,10.159,11.022,15.531s-20.927,6.755-21.358,6.43-1.317-3.5-.723-4.476,12.477-2.729,13.372-4.051S3166.214,842.953,3166.214,842.953Z" transform="translate(-3121.58 -826.489)" fill="#5091b9"/>
    </g>
    <g id="Grupo_60711" data-name="Grupo 60711" transform="translate(818.298 615.135)">
      <path id="Trazado_105180" data-name="Trazado 105180" d="M2869.137,1332.843v.515c0,11.123-.2,21.964-.671,22.821-.6,1.108-25.915,1.219-45.359.908-.173,0-.344,0-.515-.008s-.344,0-.515-.008c-11.471-.191-20.661-.531-21.081-.891-.539-.463-1.044-11.424-1.32-22.821-.008-.342-.017-.686-.025-1.029-.132-5.775-.2-11.587-.191-16.126.014-5.091.136-8.585.4-8.634,1.581-.3,67.8.325,68.608.976.223.181.4,3.765.515,8.9.1,4.253.149,9.569.155,14.889C2869.135,1332.5,2869.137,1332.672,2869.137,1332.843Z" transform="translate(-2799.458 -1307.49)" fill="#79c5ee"/>
      <path id="Trazado_105181" data-name="Trazado 105181" d="M2868.986,1314.991l-8.344-.105-61.176-.774c.014-3.617.136-6.1.4-6.135,1.252-.17,43.043.075,60.779.412,4.659.089,7.659.184,7.83.28C2868.693,1308.8,2868.871,1311.346,2868.986,1314.991Z" transform="translate(-2799.464 -1307.839)" fill="#367394"/>
      <path id="Trazado_105182" data-name="Trazado 105182" d="M3126.621,1316.96l-8.344-.105v-6.5c4.659.089,7.658.184,7.829.279C3126.329,1310.767,3126.506,1313.315,3126.621,1316.96Z" transform="translate(-3057.099 -1309.808)" fill="#28495c"/>
      <g id="Grupo_60693" data-name="Grupo 60693" transform="translate(63.585 2.086)">
        <g id="Grupo_60691" data-name="Grupo 60691" transform="translate(0 0)">
          <path id="Trazado_105183" data-name="Trazado 105183" d="M3130.936,1321.778a.391.391,0,0,1,0-.552l2.749-2.749a.39.39,0,0,1,.552.552l-2.749,2.749A.39.39,0,0,1,3130.936,1321.778Z" transform="translate(-3130.822 -1318.362)" fill="#79c5ee"/>
        </g>
        <g id="Grupo_60692" data-name="Grupo 60692">
          <path id="Trazado_105184" data-name="Trazado 105184" d="M3133.685,1321.777l-2.749-2.749a.39.39,0,1,1,.552-.552l2.749,2.749a.39.39,0,0,1-.552.552Z" transform="translate(-3130.822 -1318.362)" fill="#79c5ee"/>
        </g>
      </g>
      <path id="Trazado_105185" data-name="Trazado 105185" d="M2823.914,1321.651a1.113,1.113,0,1,1-1.114-1.114A1.114,1.114,0,0,1,2823.914,1321.651Z" transform="translate(-2817.422 -1318.034)" fill="#fad6b9"/>
      <path id="Trazado_105186" data-name="Trazado 105186" d="M2845.192,1321.651a1.113,1.113,0,1,1-1.113-1.114A1.113,1.113,0,0,1,2845.192,1321.651Z" transform="translate(-2834.617 -1318.034)" fill="#fff4eb"/>
      <path id="Trazado_105187" data-name="Trazado 105187" d="M2866.469,1321.651a1.114,1.114,0,1,1-1.114-1.114A1.114,1.114,0,0,1,2866.469,1321.651Z" transform="translate(-2851.811 -1318.034)" fill="#fff4eb"/>
      <g id="Grupo_60710" data-name="Grupo 60710" transform="translate(4.573 9.914)">
        <g id="Grupo_60706" data-name="Grupo 60706" transform="translate(2.445 17.93)">
          <g id="Grupo_60697" data-name="Grupo 60697">
            <path id="Trazado_105188" data-name="Trazado 105188" d="M2836.256,1452.71c.181-.181,14.351-.158,14.522.118s.069,9.59-.059,9.943c-.214.592-14.274.77-14.51,0C2835.99,1462.061,2835.941,1453.025,2836.256,1452.71Z" transform="translate(-2836.032 -1452.593)" fill="#fad6b9"/>
            <g id="Grupo_60696" data-name="Grupo 60696" transform="translate(0.473 12.988)">
              <g id="Grupo_60694" data-name="Grupo 60694">
                <rect id="Rectángulo_7540" data-name="Rectángulo 7540" width="13.89" height="1.327" fill="#5091b9"/>
              </g>
              <g id="Grupo_60695" data-name="Grupo 60695" transform="translate(0 2.619)">
                <rect id="Rectángulo_7541" data-name="Rectángulo 7541" width="7.615" height="1.327" fill="#5091b9"/>
              </g>
            </g>
          </g>
          <g id="Grupo_60701" data-name="Grupo 60701" transform="translate(20.403)">
            <path id="Trazado_105189" data-name="Trazado 105189" d="M2942.582,1452.71c.18-.181,14.35-.158,14.522.118s.069,9.59-.059,9.943c-.214.592-14.274.77-14.51,0C2942.317,1462.061,2942.267,1453.025,2942.582,1452.71Z" transform="translate(-2942.359 -1452.593)" fill="#fad6b9"/>
            <g id="Grupo_60700" data-name="Grupo 60700" transform="translate(0.473 12.988)">
              <g id="Grupo_60698" data-name="Grupo 60698">
                <rect id="Rectángulo_7542" data-name="Rectángulo 7542" width="13.89" height="1.327" fill="#5091b9"/>
              </g>
              <g id="Grupo_60699" data-name="Grupo 60699" transform="translate(0 2.619)">
                <rect id="Rectángulo_7543" data-name="Rectángulo 7543" width="7.615" height="1.327" fill="#5091b9"/>
              </g>
            </g>
          </g>
          <g id="Grupo_60705" data-name="Grupo 60705" transform="translate(40.806)">
            <path id="Trazado_105190" data-name="Trazado 105190" d="M3048.909,1452.71c.181-.181,14.35-.158,14.522.118s.069,9.59-.059,9.943c-.214.592-14.273.77-14.51,0C3048.644,1462.061,3048.595,1453.025,3048.909,1452.71Z" transform="translate(-3048.686 -1452.593)" fill="#fad6b9"/>
            <g id="Grupo_60704" data-name="Grupo 60704" transform="translate(0.473 12.988)">
              <g id="Grupo_60702" data-name="Grupo 60702">
                <rect id="Rectángulo_7544" data-name="Rectángulo 7544" width="13.89" height="1.327" fill="#5091b9"/>
              </g>
              <g id="Grupo_60703" data-name="Grupo 60703" transform="translate(0 2.619)">
                <rect id="Rectángulo_7545" data-name="Rectángulo 7545" width="7.615" height="1.327" fill="#5091b9"/>
              </g>
            </g>
          </g>
        </g>
        <g id="Grupo_60709" data-name="Grupo 60709">
          <path id="Trazado_105191" data-name="Trazado 105191" d="M2883.685,1369.151a17.056,17.056,0,0,1-.471,4.168c-.875.823-58.24,1.072-59.2,0-.307-.342-.532-2.053-.646-4.171-.21-4.035-.007-9.546.833-9.833.74-.252,58.553-.22,59.254.165C2883.9,1359.728,2883.892,1365.164,2883.685,1369.151Z" transform="translate(-2823.29 -1359.156)" fill="#fff4eb"/>
          <g id="Grupo_60708" data-name="Grupo 60708" transform="translate(20.611 3.326)">
            <g id="Grupo_60707" data-name="Grupo 60707">
              <rect id="Rectángulo_7546" data-name="Rectángulo 7546" width="19.311" height="2.169" fill="#fad6b9"/>
            </g>
            <rect id="Rectángulo_7547" data-name="Rectángulo 7547" width="3.37" height="2.169" transform="translate(15.941)" fill="#5091b9"/>
          </g>
          <path id="Trazado_105192" data-name="Trazado 105192" d="M2884.008,1411.244a17.043,17.043,0,0,1-.471,4.168c-.875.823-58.24,1.072-59.2,0-.307-.342-.532-2.053-.646-4.171Z" transform="translate(-2823.612 -1401.249)" fill="#5091b9"/>
        </g>
      </g>
    </g>
    <g id="Grupo_60720" data-name="Grupo 60720" transform="translate(1230.273 586.47)">
      <path id="Trazado_105215" data-name="Trazado 105215" d="M5034.349,1209.076a12.145,12.145,0,0,1,3.64.421,32.568,32.568,0,0,0-5.38-14.057,12.455,12.455,0,0,1-21.582-8.064,12.2,12.2,0,0,1,1.185-5.712,32.424,32.424,0,0,0-8.023-.719,33.081,33.081,0,0,0-5.875.725,12.339,12.339,0,0,1,1.813,6.067,12.459,12.459,0,0,1-22.36,7.972,32.455,32.455,0,0,0-4.888,11.929,12.229,12.229,0,0,1,2.951-.455,12.463,12.463,0,0,1,1.84,24.837,33.023,33.023,0,0,0,15.268,12.528,12.465,12.465,0,1,1,23.227.562,32.96,32.96,0,0,0,15.6-11.482,12.461,12.461,0,0,1,2.585-24.55Zm-28.777,13.618a8.763,8.763,0,1,1,8.469-9.049A8.768,8.768,0,0,1,5005.572,1222.694Z" transform="translate(-4967.799 -1176.548)" fill="#5091b9"/>
      <path id="Trazado_105216" data-name="Trazado 105216" d="M5086.262,1289.448a8.977,8.977,0,0,0-2.98-.41,8.767,8.767,0,0,0-8.468,9.049,8.616,8.616,0,0,0,.852,3.49,8.767,8.767,0,1,1,10.6-12.129Z" transform="translate(-5045.952 -1260.219)" fill="#5091b9"/>
      <path id="Trazado_105217" data-name="Trazado 105217" d="M5240.673,1432.748l5.082,4.378s-3.234,3.7-6.828,1.092S5240.673,1432.748,5240.673,1432.748Z" transform="translate(-5181.79 -1380.048)" fill="#5091b9"/>
      <path id="Trazado_105218" data-name="Trazado 105218" d="M5171.977,1468.2l5.081,4.378s5.953-5.264,2.576-9.163S5171.977,1468.2,5171.977,1468.2Z" transform="translate(-5128.691 -1404.017)" fill="#5091b9"/>
      <path id="Trazado_105219" data-name="Trazado 105219" d="M5136.924,1161.956l5.081,4.378s-5.674,3.522-7.936,1.908S5136.924,1161.956,5136.924,1161.956Z" transform="translate(-5097.591 -1161.218)" fill="#5091b9"/>
      <path id="Trazado_105220" data-name="Trazado 105220" d="M5256.138,1233.746l5.082,4.378s2.273,5.564-2.324,4.353S5256.138,1233.746,5256.138,1233.746Z" transform="translate(-5196.408 -1219.232)" fill="#5091b9"/>
      <path id="Trazado_105221" data-name="Trazado 105221" d="M4946.4,1290.437l5.081,4.378s3.959-1.4,2.683-4.635S4946.4,1290.437,4946.4,1290.437Z" transform="translate(-4946.4 -1263.726)" fill="#5091b9"/>
      <path id="Trazado_105222" data-name="Trazado 105222" d="M5007.869,1186.26a12.135,12.135,0,0,1,3.641.421,32.583,32.583,0,0,0-5.38-14.057,12.46,12.46,0,0,1-21.582-8.064,12.194,12.194,0,0,1,1.185-5.712,32.424,32.424,0,0,0-8.023-.719,33.115,33.115,0,0,0-5.875.725,12.34,12.34,0,0,1,1.814,6.067,12.459,12.459,0,0,1-22.36,7.972,32.452,32.452,0,0,0-4.888,11.929,12.21,12.21,0,0,1,2.951-.455,12.479,12.479,0,0,1,12.679,10.21,12.867,12.867,0,0,1,.19,1.834,12.471,12.471,0,0,1-11.029,12.792,33.021,33.021,0,0,0,15.267,12.528,12.465,12.465,0,1,1,23.228.562,32.956,32.956,0,0,0,15.6-11.482,12.461,12.461,0,0,1,2.585-24.55Zm-28.776,13.618a8.754,8.754,0,0,1-9.03-8.231,1.768,1.768,0,0,1-.019-.238,8.769,8.769,0,0,1,8.469-9.049,8.768,8.768,0,0,1,9.048,8.469A8.768,8.768,0,0,1,4979.092,1199.879Z" transform="translate(-4946.4 -1158.11)" fill="#79c5ee"/>
      <path id="Trazado_105223" data-name="Trazado 105223" d="M4991.111,1175.124a36.04,36.04,0,0,1-7.729,8.526,8.679,8.679,0,0,0-4.87-1.289,8.769,8.769,0,0,0-8.469,9.049,1.768,1.768,0,0,0,.019.238,71.556,71.556,0,0,1-8.032,2.929,12.479,12.479,0,0,0-12.679-10.21,12.21,12.21,0,0,0-2.951.455,32.452,32.452,0,0,1,4.888-11.929,12.459,12.459,0,0,0,20.546-14.039,33.115,33.115,0,0,1,5.875-.725,32.424,32.424,0,0,1,8.023.719,12.194,12.194,0,0,0-1.185,5.712A12.451,12.451,0,0,0,4991.111,1175.124Z" transform="translate(-4946.4 -1158.11)" fill="#333" style="mix-blend-mode: screen;isolation: isolate"/>
    </g>
    <g id="Grupo_60724" data-name="Grupo 60724" transform="translate(774.94 368.102)">
      <ellipse id="Elipse_1636" data-name="Elipse 1636" cx="28.222" cy="30.256" rx="28.222" ry="30.256" transform="matrix(0.557, -0.83, 0.83, 0.557, 0, 46.865)" fill="#ffb03a"/>
      <path id="Trazado_105224" data-name="Trazado 105224" d="M2593.5,284.44c-.414,7.713-11.6,16.05-12.408,19.62-1.143,5.06,6.283,11.793,11.056,9.023s10.645-10.549,17.892-12.716S2593.5,284.44,2593.5,284.44Z" transform="translate(-2579.542 -233.72)" fill="#ffb03a"/>
      <g id="Grupo_60721" data-name="Grupo 60721" transform="translate(15.675 33.623)">
        <path id="Trazado_105225" data-name="Trazado 105225" d="M2658.156,228.4l-2.959-1.986,20.706-30.848a.5.5,0,0,1,.837.562l-20.145,30.011,1.531,1.028,29.137-21.7a.5.5,0,0,1,.6.809Z" transform="translate(-2655.196 -195.341)" fill="#fd7816"/>
      </g>
      <g id="Grupo_60722" data-name="Grupo 60722" transform="translate(2.105 59.677)">
        <path id="Trazado_105226" data-name="Trazado 105226" d="M2584.923,344.164a1.008,1.008,0,0,1,1.051-1.718c4.171,2.311,8.385,4.1,10.036,4.32a32.087,32.087,0,0,0-3.493-2.955c-3.3-2.557-5.909-4.576-4.642-6.354,1.194-1.675,4.259-.14,8.5,1.984,1.856.929,4.9,2.454,5.854,2.447a.427.427,0,0,0,0-.109c-.27-1.961-7.021-6.772-9.9-8.827a1.007,1.007,0,0,1-.236-1.406,1,1,0,0,1,1.405-.236c7.637,5.442,10.444,8.109,10.731,10.193a2.259,2.259,0,0,1-.477,1.767c-1.16,1.44-3.635.295-8.273-2.028a33.265,33.265,0,0,0-5.677-2.461,28,28,0,0,0,3.954,3.435c3.168,2.453,5.458,4.226,4.308,5.838s-5.545.32-13.062-3.845C2584.972,344.2,2584.947,344.18,2584.923,344.164Z" transform="translate(-2584.478 -331.117)" fill="#fe653b"/>
      </g>
      <g id="Grupo_60723" data-name="Grupo 60723" transform="translate(27.772 34.291)">
        <path id="Trazado_105227" data-name="Trazado 105227" d="M2736.985,216.167c-1.055-.708-1.1-1.708-1.019-2.869a3.066,3.066,0,0,0-.728-2.729,6.025,6.025,0,0,0-3.371-1.4c-1.981-.392-4.228-.839-5.041-4.092-.692-2.767-1.618-4.339-2.919-4.949-1.2-.563-2.82-.337-4.947.69a.5.5,0,0,1-.439-.907c2.417-1.168,4.319-1.4,5.813-.7,1.595.745,2.7,2.532,3.469,5.617.659,2.634,2.326,2.965,4.259,3.348a6.9,6.9,0,0,1,3.9,1.686,4.021,4.021,0,0,1,1.012,3.507c-.1,1.347-.158,2.16,2.636,2.63a.5.5,0,0,1-.167.994A6.29,6.29,0,0,1,2736.985,216.167Z" transform="translate(-2718.238 -198.819)" fill="#fe653b"/>
      </g>
      <ellipse id="Elipse_1637" data-name="Elipse 1637" cx="6.35" cy="16.329" rx="6.35" ry="16.329" transform="translate(26.723 26.461) rotate(-78.704)" fill="#333" style="mix-blend-mode: screen;isolation: isolate"/>
    </g>
    <g id="Grupo_60725" data-name="Grupo 60725" transform="translate(299.999 556.479)">
      <path id="Trazado_105228" data-name="Trazado 105228" d="M140.13,1068.922a24.974,24.974,0,1,0-24.541-25.4A24.974,24.974,0,0,0,140.13,1068.922Zm.086-4.986a19.987,19.987,0,1,1,20.328-19.64A19.982,19.982,0,0,1,140.216,1063.936Z" transform="translate(-112.293 -1015.686)" fill="#fe653b"/>
      <circle id="Elipse_1638" data-name="Elipse 1638" cx="19.987" cy="19.987" r="19.987" transform="translate(0 28.266) rotate(-45)" fill="#ffb03a"/>
      <path id="Trazado_105229" data-name="Trazado 105229" d="M314.1,1239.377s25.447,36.837,26.4,37.144c2.241.724,6.616-3.118,5.975-5.382-.377-1.333-27.736-35.347-27.736-35.347Z" transform="translate(-272.713 -1190.896)" fill="#fe653b"/>
      <ellipse id="Elipse_1639" data-name="Elipse 1639" cx="13.085" cy="5.77" rx="13.085" ry="5.77" transform="translate(7.382 25.654) rotate(-44.015)" fill="#333" style="mix-blend-mode: screen;isolation: isolate"/>
    </g>
    <g id="Grupo_60728" data-name="Grupo 60728" transform="translate(1025.625 405.209)">
      <g id="Grupo_60726" data-name="Grupo 60726" transform="translate(12.243 9.218)">
        <path id="Trazado_105230" data-name="Trazado 105230" d="M3944.331,299.136l-.622-3.539,39.833-7-32.419-24.18,2.148-2.88,39.092,29.158Z" transform="translate(-3943.708 -261.534)" fill="#ffb03a"/>
      </g>
      <circle id="Elipse_1640" data-name="Elipse 1640" cx="9.484" cy="9.484" r="9.484" transform="translate(43.736 41.491) rotate(-63.089)" fill="#4dd0e1"/>
      <g id="Grupo_60727" data-name="Grupo 60727" transform="translate(0 0)">
        <circle id="Elipse_1641" data-name="Elipse 1641" cx="9.484" cy="9.484" r="9.484" transform="translate(10.072 2.514) rotate(-7.616)" fill="#4dd0e1"/>
        <circle id="Elipse_1642" data-name="Elipse 1642" cx="9.484" cy="9.484" r="9.484" transform="translate(0 40.325) rotate(-24.376)" fill="#4dd0e1"/>
      </g>
    </g>
    <g id="Grupo_60729" data-name="Grupo 60729" transform="translate(530.56 394.058)">
      <path id="Trazado_105231" data-name="Trazado 105231" d="M1309.3,298.582a37.872,37.872,0,0,1,5.245,3.6q3.743,2.924,5.1,3.791a3.031,3.031,0,0,1,1.536,2.109,3.079,3.079,0,0,1-.593,2.312,2.88,2.88,0,0,1-1.98,1.244,3.156,3.156,0,0,1-1.981-.435,62.4,62.4,0,0,1-6.541-4.749,18.825,18.825,0,0,0-7.159-3.8q-2.686-.574-2.951-2.42-.241-1.679,1.917-3.119a25.339,25.339,0,0,0,6.068-6.422q4.424-6.186,5.3-7.15a3.158,3.158,0,0,1,1.88-1.109,2.957,2.957,0,0,1,2.264.617,2.994,2.994,0,0,1,1.234,2.033,3.047,3.047,0,0,1-.7,2.293Q1315.206,291.259,1309.3,298.582Z" transform="translate(-1299.954 -258.025)" fill="#ffca28"/>
      <path id="Trazado_105232" data-name="Trazado 105232" d="M1466.792,216.4a3.208,3.208,0,0,1-2.3-.526,2.705,2.705,0,0,1-1.239-1.947,3.183,3.183,0,0,1,.071-1.175q1.583-7.594,6.885-22.215t6.914-22.253q2.673-12.65,4.937-12.872a3.312,3.312,0,0,1,2.31.576,2.721,2.721,0,0,1,1.236,1.93,5.9,5.9,0,0,1-.1,1.9l-2.449,9.671a128.324,128.324,0,0,1-4.355,15.256l-5.324,14.949-4.145,14.335A2.939,2.939,0,0,1,1466.792,216.4Z" transform="translate(-1431.894 -155.384)" fill="#ffca28"/>
      <path id="Trazado_105233" data-name="Trazado 105233" d="M1647.175,246.748a3.376,3.376,0,0,1-.9,2.562,119.616,119.616,0,0,1-14.883,15.431,3.354,3.354,0,0,1-1.693.86,2.8,2.8,0,0,1-2.235-.656,3.127,3.127,0,0,1-1.2-2.038,2.951,2.951,0,0,1,.972-2.538l11.6-11.807a61.743,61.743,0,0,1-8.258-5.017q-6.1-4.3-6.379-6.246a2.879,2.879,0,0,1,.636-2.25,3.041,3.041,0,0,1,2.019-1.215,2.991,2.991,0,0,1,2.413.819q8.883,7.462,15.557,9.794Q1646.949,245.17,1647.175,246.748Z" transform="translate(-1561.955 -218.759)" fill="#ffca28"/>
    </g>
    <path id="Trazado_105234" data-name="Trazado 105234" d="M73.19-43.289H31.284V0H9.458V-105.93H78.429V-88.25H31.284V-60.9H73.19ZM130.3-38.778H112.914V0H91.088V-105.93h39.36q18.771,0,28.956,8.367t10.186,23.645q0,10.84-4.693,18.079T150.673-44.307L173.591-1.019V0H150.164ZM112.914-56.457h17.606q8.221,0,12.732-4.183t4.511-11.531q0-7.494-4.256-11.786T130.448-88.25H112.914Zm160.277,5.893q0,15.642-5.529,27.428A41.641,41.641,0,0,1,251.838-4.947a43.772,43.772,0,0,1-23.609,6.4,44.07,44.07,0,0,1-23.5-6.33,42.05,42.05,0,0,1-16.006-18.079q-5.675-11.75-5.748-27.028V-55.22q0-15.642,5.638-27.537a41.981,41.981,0,0,1,15.933-18.261,43.827,43.827,0,0,1,23.536-6.366,43.827,43.827,0,0,1,23.536,6.366,41.981,41.981,0,0,1,15.933,18.261q5.638,11.9,5.638,27.465Zm-22.117-4.8q0-16.661-5.966-25.318t-17.024-8.658q-10.986,0-16.952,8.549t-6.039,25.064v5.166q0,16.224,5.966,25.173t17.17,8.949q10.986,0,16.879-8.621T251.074-50.2ZM375.192,0H353.366L310.877-69.7V0H289.051V-105.93h21.826l42.561,69.844V-105.93h21.753Zm96.69-88.25H439.434V0H417.607V-88.25H385.6V-105.93h86.286Zm84.686,51.364h-40.96V-53.838h40.96Zm119.1-9.021H633.759v28.374h49.182V0H611.933V-105.93H682.8V-88.25H633.759V-63h41.906ZM781.886,0H760.06L717.572-69.7V0H695.746V-105.93h21.826l42.561,69.844V-105.93h21.753Zm19.062,0V-105.93h32.594a49.5,49.5,0,0,1,24.991,6.293,43.884,43.884,0,0,1,17.206,17.9,55.2,55.2,0,0,1,6.184,26.373v4.875a55.358,55.358,0,0,1-6.075,26.264A43.508,43.508,0,0,1,858.714-6.4,49.871,49.871,0,0,1,833.76,0Zm21.826-88.25v70.717h10.549q12.8,0,19.571-8.367t6.912-23.936v-5.6q0-16.151-6.693-24.482t-19.571-8.33Z" transform="translate(356 608)" fill="#4dd0e1"/>
    <path id="Trazado_105235" data-name="Trazado 105235" d="M10.41-6.221V-116.678H49.1q20.1,0,30.5,7.7T89.991-86.409a24.956,24.956,0,0,1-4.172,14.3,24.1,24.1,0,0,1-11.607,9.066A23.319,23.319,0,0,1,87.6-54.47q4.893,6.448,4.893,15.78,0,15.931-10.166,24.124T53.349-6.221Zm22.759-48.1V-24.5h19.5q8.041,0,12.555-3.831t4.514-10.583q0-15.173-15.7-15.4Zm0-16.083H50.011q17.221-.3,17.221-13.731,0-7.51-4.362-10.81T49.1-98.243H33.169ZM171.923-28.98h-39.9L124.432-6.221h-24.2L141.35-116.678h21.09L203.785-6.221h-24.2ZM138.164-47.415h27.614L151.895-88.76Zm161.057,4.4q-1.29,17.828-13.162,28.069T254.765-4.7q-21.242,0-33.418-14.3T209.172-58.263v-6.752q0-15.931,5.614-28.069a42.07,42.07,0,0,1,16.045-18.624q10.431-6.486,24.238-6.486,19.117,0,30.8,10.242t13.5,28.752H276.614q-.835-10.7-5.955-15.514t-15.59-4.817q-11.379,0-17.031,8.155t-5.8,25.3v8.345q0,17.9,5.424,26.173t17.107,8.269q10.545,0,15.742-4.817t5.955-14.907Zm49.539-7.51L336.925-37.78V-6.221H314.166V-116.678h22.759v50.07L346.939-80.34l28.145-36.338h27.993L363.856-67.595,404.216-6.221H377.132Zm143.912,5.841H449.961V-62.36h42.711ZM616.86-54.091h-43.7V-24.5h51.283V-6.221H550.4V-116.678h73.891v18.435H573.163v26.325h43.7ZM727.62-6.221H704.861L660.557-78.9V-6.221H637.8V-116.678h22.759l44.38,72.829v-72.829H727.62Zm19.876,0V-116.678h33.987a51.613,51.613,0,0,1,26.059,6.562,45.76,45.76,0,0,1,17.942,18.662,57.561,57.561,0,0,1,6.448,27.5v5.083q0,15.4-6.335,27.387A45.367,45.367,0,0,1,807.731-12.9,52,52,0,0,1,781.71-6.221Zm22.759-92.022V-24.5h11q13.352,0,20.407-8.724t7.207-24.959v-5.841q0-16.842-6.979-25.528t-20.407-8.686Z" transform="translate(414.231 768)" fill="#4dd0e1"/>
    <g id="Grupo_60714" data-name="Grupo 60714" transform="translate(584.102 543.268)">
      <path id="Trazado_105195" data-name="Trazado 105195" d="M1641.985,980.624a9.261,9.261,0,0,1,2.694.856,25.627,25.627,0,0,0-2-11.562,9.489,9.489,0,0,1-7.183,1.774,9.737,9.737,0,0,1-6.224-15.32,24.715,24.715,0,0,0-5.968-1.727,25.2,25.2,0,0,0-4.555-.305,9.746,9.746,0,0,1-10.541,13.015,9.557,9.557,0,0,1-7.087-5.265,25.494,25.494,0,0,0-5.461,8.427,9.311,9.311,0,0,1,2.3.083,9.733,9.733,0,0,1-2.274,19.305,25.561,25.561,0,0,0,9.708,11.838,9.782,9.782,0,0,1,.008-3.026,9.611,9.611,0,1,1,17.494,6.859,25.411,25.411,0,0,0,13.5-6.516,9.741,9.741,0,0,1,5.583-18.437Zm-23.8,6.222a6.841,6.841,0,1,1,7.748-5.695A6.8,6.8,0,0,1,1618.188,986.846Z" transform="translate(-1592.461 -950.234)" fill="#ff643b"/>
      <path id="Trazado_105196" data-name="Trazado 105196" d="M1680.049,1036.659a6.831,6.831,0,0,0-9.813,7.744,6.856,6.856,0,0,1,4.343-12.76A6.754,6.754,0,0,1,1680.049,1036.659Z" transform="translate(-1649.904 -1012.64)" fill="#ff643b"/>
      <path id="Trazado_105197" data-name="Trazado 105197" d="M1779.484,1166.06l3.2,4.1s-2.994,2.363-5.33-.163S1779.484,1166.06,1779.484,1166.06Z" transform="translate(-1738.743 -1121.332)" fill="#ff643b"/>
      <path id="Trazado_105198" data-name="Trazado 105198" d="M1720.926,1184.735l3.2,4.1s5.284-3.163,3.3-6.645S1720.926,1184.735,1720.926,1184.735Z" transform="translate(-1693.689 -1133.491)" fill="#ff643b"/>
      <path id="Trazado_105199" data-name="Trazado 105199" d="M1739.9,943.592l3.2,4.1s-4.816,1.868-6.29.3S1739.9,943.592,1739.9,943.592Z" transform="translate(-1706.292 -941.553)" fill="#ff643b"/>
      <path id="Trazado_105200" data-name="Trazado 105200" d="M1820.193,1014.185l3.2,4.1s.9,4.6-2.4,3S1820.193,1014.185,1820.193,1014.185Z" transform="translate(-1773.172 -998.6)" fill="#ff643b"/>
      <path id="Trazado_105201" data-name="Trazado 105201" d="M1578.983,1014.987l3.2,4.1s3.2-.491,2.715-3.16S1578.983,1014.987,1578.983,1014.987Z" transform="translate(-1578.983 -998.804)" fill="#ff643b"/>
      <path id="Trazado_105202" data-name="Trazado 105202" d="M1625.307,959.258a9.26,9.26,0,0,1,2.694.856,25.628,25.628,0,0,0-2-11.562,9.5,9.5,0,0,1-11.739-.284,9.742,9.742,0,0,1-3.409-9.058,9.611,9.611,0,0,1,1.741-4.2,24.716,24.716,0,0,0-5.968-1.727,25.219,25.219,0,0,0-4.555-.305,9.746,9.746,0,0,1-10.541,13.015,9.557,9.557,0,0,1-7.087-5.265,25.5,25.5,0,0,0-5.462,8.427,9.317,9.317,0,0,1,2.3.084,9.66,9.66,0,0,1,8.091,9.683,10.155,10.155,0,0,1-.127,1.433,9.687,9.687,0,0,1-10.239,8.189,25.563,25.563,0,0,0,9.708,11.838,9.788,9.788,0,0,1,.008-3.026,9.611,9.611,0,1,1,17.494,6.859,25.41,25.41,0,0,0,13.5-6.516,9.741,9.741,0,0,1,5.583-18.437Zm-23.8,6.222a6.789,6.789,0,0,1-5.621-7.631,1.415,1.415,0,0,1,.021-.185,6.8,6.8,0,0,1,7.747-5.695,6.638,6.638,0,0,1,3.5,1.7,6.856,6.856,0,0,1-5.645,11.809Z" transform="translate(-1578.983 -932.968)" fill="#ffab3b"/>
      <path id="Trazado_105203" data-name="Trazado 105203" d="M1614.264,948.269a27.973,27.973,0,0,1-7.11,5.4,6.638,6.638,0,0,0-3.5-1.7,6.8,6.8,0,0,0-7.747,5.695,1.415,1.415,0,0,0-.021.185,54.7,54.7,0,0,1-6.514,1.068,9.66,9.66,0,0,0-8.091-9.683,9.317,9.317,0,0,0-2.3-.084,25.5,25.5,0,0,1,5.462-8.427,9.557,9.557,0,0,0,7.087,5.265,9.746,9.746,0,0,0,10.541-13.015,25.219,25.219,0,0,1,4.555.305,24.716,24.716,0,0,1,5.968,1.727,9.611,9.611,0,0,0-1.741,4.2A9.742,9.742,0,0,0,1614.264,948.269Z" transform="translate(-1578.983 -932.968)" fill="#333" style="mix-blend-mode: screen;isolation: isolate"/>
    </g>
    <g id="Grupo_60688" data-name="Grupo 60688" transform="translate(1153.926 405.209)">
      <path id="Trazado_105147" data-name="Trazado 105147" d="M4542.692,1155.424c4.865-4.347,1.726-7.432.414-10.3s1.315-6.168,1.315-6.168-7.524,2.69-9.286,8.208,3.252,8.617,3.252,8.617Z" transform="translate(-4534.76 -1134.219)" fill="#1d3442"/>
      <path id="Trazado_105148" data-name="Trazado 105148" d="M4559.213,1226.825c1.35,7.717,2.053,24.106.566,23.487-1.562-.65-4.579-13.123-5.692-21.928a49.211,49.211,0,0,1-.426-5.074s2.272-1.508,4.305-.36C4558.409,1223.2,4558.835,1224.676,4559.213,1226.825Z" transform="translate(-4550.034 -1201.745)" fill="#79c5ee"/>
      <path id="Trazado_105149" data-name="Trazado 105149" d="M4559.213,1226.825a13.725,13.725,0,0,1-5.126,1.559,49.211,49.211,0,0,1-.426-5.074s2.272-1.508,4.305-.36C4558.409,1223.2,4558.835,1224.676,4559.213,1226.825Z" transform="translate(-4550.034 -1201.745)" fill="#367394"/>
      <ellipse id="Elipse_1632" data-name="Elipse 1632" cx="0.84" cy="6.27" rx="0.84" ry="6.27" transform="matrix(0.992, -0.13, 0.13, 0.992, 4.2, 22.127)" fill="#333" style="mix-blend-mode: screen;isolation: isolate"/>
      <path id="Trazado_105150" data-name="Trazado 105150" d="M4600.326,1125.347c.284.577.9,1.842,1.592,3.309a62.251,62.251,0,0,1,3.191,7.382c.154,1.262-1.535,26.243-2.279,26.678a7.389,7.389,0,0,1-2.374.212c-.239,0-.491-.005-.747-.012-.777-.019-1.594-.066-2.318-.14-.253-.022-.5-.05-.718-.078a4.02,4.02,0,0,1-1.491-.364c-.431-.359-.863-25.176-.583-26.747.166-.92,2.053-4.407,3.583-7.13.781-1.388,1.469-2.575,1.789-3.126A.2.2,0,0,1,4600.326,1125.347Z" transform="translate(-4583.043 -1123.127)" fill="#ffab3b"/>
      <g id="Grupo_60675" data-name="Grupo 60675" transform="translate(13.629 11.115)">
        <path id="Trazado_105151" data-name="Trazado 105151" d="M4607.135,1172.187c0,.07,0,7.186-.094,14.3-.129,9.468-.341,12.922-.54,14.238-.252-.022-.5-.049-.718-.077.456-2.953.618-18.2.612-28.457Z" transform="translate(-4605.783 -1172.187)" fill="#ff863b"/>
      </g>
      <g id="Grupo_60676" data-name="Grupo 60676" transform="translate(16.665 11.522)">
        <path id="Trazado_105152" data-name="Trazado 105152" d="M4624.1,1174.351l-1.751,28.235c-.239,0-.49-.005-.747-.012l1.756-28.268Z" transform="translate(-4621.606 -1174.306)" fill="#ff863b"/>
      </g>
      <path id="Trazado_105153" data-name="Trazado 105153" d="M4602.294,1142.246a62.23,62.23,0,0,1,3.19,7.382l-10.511-.45c.166-.92,2.053-4.407,3.583-7.13Z" transform="translate(-4583.419 -1136.717)" fill="#ffd194"/>
      <path id="Trazado_105154" data-name="Trazado 105154" d="M4693.99,1116.74c.074.51-11.581,36.567-11.581,36.567l-8.668-2.112,7.5-23.455s.663-1.649,1.543-3.792c.024-.061.051-.123.075-.186l.573-1.388c.026-.063.053-.125.077-.188.158-.377.315-.761.475-1.143.026-.063.053-.125.079-.186.2-.48.4-.959.6-1.427l.08-.188c.2-.457.386-.9.569-1.329.028-.063.054-.124.08-.184.142-.328.277-.641.409-.937.028-.063.055-.123.083-.184.147-.336.287-.644.415-.921.028-.063.057-.124.085-.182a4.657,4.657,0,0,1,.686-1.241C4687.508,1114.191,4693.917,1116.231,4693.99,1116.74Z" transform="translate(-4647.071 -1114.262)" fill="#ffab3b"/>
      <g id="Grupo_60677" data-name="Grupo 60677" transform="translate(39.228 1.242)">
        <path id="Trazado_105155" data-name="Trazado 105155" d="M4740.9,1121.394l-.077.186-1.631-.662q.043-.094.085-.182Z" transform="translate(-4739.19 -1120.736)" fill="#f04936"/>
      </g>
      <g id="Grupo_60678" data-name="Grupo 60678" transform="translate(38.73 2.345)">
        <path id="Trazado_105156" data-name="Trazado 105156" d="M4738.276,1127.13l-.075.186-1.6-.65c.028-.063.054-.123.083-.184Z" transform="translate(-4736.597 -1126.482)" fill="#f04936"/>
      </g>
      <g id="Grupo_60679" data-name="Grupo 60679" transform="translate(38.241 3.466)">
        <path id="Trazado_105157" data-name="Trazado 105157" d="M4735.654,1132.943l-.077.186-1.532-.621c.028-.063.055-.124.082-.184Z" transform="translate(-4734.045 -1132.324)" fill="#f04936"/>
      </g>
      <g id="Grupo_60680" data-name="Grupo 60680" transform="translate(37.593 4.979)">
        <path id="Trazado_105158" data-name="Trazado 105158" d="M4732.9,1141.124l-.081.186-2.153-.91.079-.188Z" transform="translate(-4730.67 -1140.211)" fill="#f04936"/>
      </g>
      <g id="Grupo_60681" data-name="Grupo 60681" transform="translate(36.915 6.594)">
        <path id="Trazado_105159" data-name="Trazado 105159" d="M4728.727,1149.265l-.079.186-1.509-.639c.026-.063.053-.126.079-.186Z" transform="translate(-4727.138 -1148.626)" fill="#f04936"/>
      </g>
      <g id="Grupo_60682" data-name="Grupo 60682" transform="translate(36.363 7.923)">
        <path id="Trazado_105160" data-name="Trazado 105160" d="M4725.872,1156.2l-.081.186-1.532-.647c.026-.063.054-.125.077-.188Z" transform="translate(-4724.259 -1155.554)" fill="#f04936"/>
      </g>
      <g id="Grupo_60683" data-name="Grupo 60683" transform="translate(35.715 9.5)">
        <path id="Trazado_105161" data-name="Trazado 105161" d="M4722.514,1164.426l-.079.186-1.55-.658c.024-.061.05-.123.075-.186Z" transform="translate(-4720.885 -1163.768)" fill="#f04936"/>
      </g>
      <path id="Trazado_105162" data-name="Trazado 105162" d="M4722.787,1121.792c.7.289-.15,3.99-1.907,8.267s-3.753,7.508-4.457,7.219.15-3.99,1.908-8.267S4722.084,1121.5,4722.787,1121.792Z" transform="translate(-4681.365 -1120.333)" fill="#333" style="mix-blend-mode: screen;isolation: isolate"/>
      <path id="Trazado_105163" data-name="Trazado 105163" d="M4659.092,1146.381c-.951,6.192-3.16,19.208-3.5,19.6-.182.212-2.4.059-4.925-.194-3.535-.352-7.677-.9-7.677-.9s1.323-13.838,2.3-20.469a20.177,20.177,0,0,1,.649-3.306c.039-.085.071-.136.1-.15l0,0a12.262,12.262,0,0,0,4.808-3.389,14.575,14.575,0,0,0,1.787-3.239c.471-1.129.761-2.072.836-2.3.146-.437,3.569-1.238,3.642-.947a30.8,30.8,0,0,0-.491,3.614,11.737,11.737,0,0,0,.491,3.962c1.166,3.715,2.332,3.861,2.4,4.516C4659.544,1143.333,4659.374,1144.562,4659.092,1146.381Z" transform="translate(-4622.224 -1127.812)" fill="#79c5ee"/>
      <path id="Trazado_105164" data-name="Trazado 105164" d="M4668.8,1188.218c-.844-.044-2.3-.188-3.958-.382a87.012,87.012,0,0,1-9.838-1.576,20.188,20.188,0,0,1,.65-3.306c.057-.085.1-.138.1-.15l0,0,8.565,1.41,4.911.809C4669.25,1185.171,4669.08,1186.4,4668.8,1188.218Z" transform="translate(-4631.93 -1169.649)" fill="#367394"/>
      <path id="Trazado_105165" data-name="Trazado 105165" d="M4697.287,1134.706l-2.357-.219c-.638-.061-1.239-.115-1.629-.152.471-1.129.76-2.072.835-2.3.146-.437,3.569-1.238,3.642-.947A30.857,30.857,0,0,0,4697.287,1134.706Z" transform="translate(-4662.879 -1127.812)" fill="#367394"/>
      <path id="Trazado_105166" data-name="Trazado 105166" d="M4691.422,1146.643c-.951,6.192-3.161,19.208-3.5,19.6-.182.212-2.4.059-4.925-.194,1.483-4.969,4.125-14.435,4.465-19.791.11-1.74-.022-3.045-.518-3.624-1.72-2.007-1.085-5.52-.342-7.887a17.181,17.181,0,0,1,.931-2.4c.34-.631,1.918-1,1.918-1a30.8,30.8,0,0,0-.491,3.614,11.737,11.737,0,0,0,.491,3.962c1.166,3.715,2.332,3.861,2.4,4.516C4691.873,1143.6,4691.7,1144.824,4691.422,1146.643Z" transform="translate(-4654.553 -1128.074)" fill="#333" style="mix-blend-mode: screen;isolation: isolate"/>
      <g id="Grupo_60685" data-name="Grupo 60685" transform="translate(27.479 4.805)">
        <path id="Trazado_105167" data-name="Trazado 105167" d="M4756.67,1148.194c.7-1.772.364-4.613.413-4.783s2.428-.34,4.1-1.493a24.161,24.161,0,0,0,2.817-2.61,34.557,34.557,0,0,1-2.865,4.441,1.209,1.209,0,0,0-.971.671.767.767,0,0,0,1.141.861c.777-.45.218-1.036.243-1.283a40.721,40.721,0,0,1,2.671-4.52c.1.073-1.093,2.768-.971,4.735s.825,3.084.7,3.326-2.744,1.19-3.861,2.5S4756.67,1148.194,4756.67,1148.194Z" transform="translate(-4741.567 -1139.303)" fill="#79c5ee"/>
        <path id="Trazado_105168" data-name="Trazado 105168" d="M4751.356,1185.323s.243-1.457.559-1.457a21.61,21.61,0,0,1,4.371,2.379c.049.292-.776,1.336-1.335,1.166S4751.356,1185.323,4751.356,1185.323Z" transform="translate(-4737.273 -1175.315)" fill="#ffab3b"/>
        <path id="Trazado_105169" data-name="Trazado 105169" d="M4697.1,1192.166c-.047,1.089-2.86,3.606-4.126,7.46-.034.1-.067.206-.1.309-.008.026-.016.053-.022.079-1.191,4.033-1.21,10.23-3.96,12.256-2.768,2.04-10.926-1.068-10.926-1.068.545-6.623,6.088-9.728,8.954-13.947.077-.113.152-.227.223-.342q.182-.283.341-.571c2.623-4.711,2.161-7.616,3.351-7.673S4697.146,1191.05,4697.1,1192.166Z" transform="translate(-4677.965 -1179.196)" fill="#506b79"/>
        <g id="Grupo_60684" data-name="Grupo 60684" transform="translate(8.954 17.717)">
          <path id="Trazado_105170" data-name="Trazado 105170" d="M4730.68,1234.346c-.035.1-.067.206-.1.309-.008.026-.017.053-.022.079l-5.933-2.76c.077-.114.151-.227.223-.342Z" transform="translate(-4724.625 -1231.633)" fill="#ffab3b"/>
        </g>
        <path id="Trazado_105171" data-name="Trazado 105171" d="M4714.044,1209.7c4.489-4.444,5.327-9.979,6.055-10.416a1.32,1.32,0,0,1,1.821.983c.146.765-1.093,4.771-3.715,7.029S4714.044,1209.7,4714.044,1209.7Z" transform="translate(-4707.121 -1187.66)" fill="#333" style="mix-blend-mode: screen;isolation: isolate"/>
      </g>
      <g id="Grupo_60686" data-name="Grupo 60686" transform="translate(2.687 36.189)">
        <path id="Trazado_105172" data-name="Trazado 105172" d="M4569.1,1302.853v40.629h-11.217a1.918,1.918,0,0,1-1.6-.826,44.682,44.682,0,0,1-7.005-19.489,102.541,102.541,0,0,1-.17-18.723,1.828,1.828,0,0,1,1.873-1.592Z" transform="translate(-4548.765 -1302.853)" fill="#ffca28"/>
        <path id="Trazado_105173" data-name="Trazado 105173" d="M4644.738,1302.853v40.629h11.217a1.918,1.918,0,0,0,1.6-.826,44.7,44.7,0,0,0,7-19.489,102.555,102.555,0,0,0,.171-18.723,1.829,1.829,0,0,0-1.874-1.592Z" transform="translate(-4626.322 -1302.853)" fill="#ffca28"/>
      </g>
      <g id="Grupo_60687" data-name="Grupo 60687" transform="translate(6.89 41.001)">
        <path id="Trazado_105174" data-name="Trazado 105174" d="M4579.191,1402.38a17.087,17.087,0,0,1-6.163-8.572,30.735,30.735,0,0,1-1.162-6.687l5.631-.252C4577.255,1392.568,4577.456,1399.045,4579.191,1402.38Z" transform="translate(-4571.637 -1375.56)" fill="#333" style="mix-blend-mode: screen;isolation: isolate"/>
        <path id="Trazado_105175" data-name="Trazado 105175" d="M4576.658,1336.836l-5.954-.867a41.892,41.892,0,0,1,.278-7.944c.314-.34,6.5.381,6.5.381S4576.962,1332.1,4576.658,1336.836Z" transform="translate(-4570.668 -1327.935)" fill="#333" style="mix-blend-mode: screen;isolation: isolate"/>
      </g>
    </g>
    <g id="Grupo_60719" data-name="Grupo 60719" transform="translate(1025.952 715.009)">
      <path id="Trazado_105204" data-name="Trazado 105204" d="M3903.42,1828.036c1.425-1.288,33.728,16.37,32.6,19.255-1.159,2.979-18.3,25.792-20.866,26.556-1.8.535-33.714-18.839-33.542-21.048S3900.506,1830.67,3903.42,1828.036Z" transform="translate(-3881.616 -1827.969)" fill="#ffab3b"/>
      <path id="Trazado_105205" data-name="Trazado 105205" d="M4045.362,1983.019l4.364.05-7.882,10.991-1.3-3.788s2.241-5.843,2.945-6.361A7.9,7.9,0,0,1,4045.362,1983.019Z" transform="translate(-4010.05 -1953.267)" fill="#ff643b"/>
      <path id="Trazado_105206" data-name="Trazado 105206" d="M4030.94,1973.442a16.074,16.074,0,0,1,2.65,1.838,71.453,71.453,0,0,1-4.815,7.253,21.464,21.464,0,0,1-2.8-1.939Z" transform="translate(-3998.278 -1945.527)" fill="#f04936"/>
      <path id="Trazado_105207" data-name="Trazado 105207" d="M3948.943,1900.126l-.9-2.066-2.583,3.724,2.167.233Z" transform="translate(-3933.213 -1884.61)" fill="#f04936"/>
      <path id="Trazado_105208" data-name="Trazado 105208" d="M3988.912,1867.372a7.257,7.257,0,1,1-11.925-8.27c.011-.016.022-.032.035-.047a7.307,7.307,0,0,1,10.125-1.869,7.127,7.127,0,0,1,2.2,2.445A7.371,7.371,0,0,1,3988.912,1867.372Z" transform="translate(-3957.612 -1850.545)" fill="#ff863b"/>
      <g id="Grupo_60716" data-name="Grupo 60716" transform="translate(20.996 8.326)">
        <g id="Grupo_60715" data-name="Grupo 60715">
          <path id="Trazado_105209" data-name="Trazado 105209" d="M3999.4,1874.022a4.24,4.24,0,0,0-1.521-1.9,4.359,4.359,0,0,0-6.045,1.133l-.006.009a4.323,4.323,0,1,0,7.572.76Zm-6.179,4.815a3.764,3.764,0,0,1-.908-5.238c.019-.027.038-.054.059-.08a3.76,3.76,0,0,1,5.166-.906,3.66,3.66,0,0,1,1.292,1.591,3.8,3.8,0,0,1-5.608,4.633Z" transform="translate(-3991.033 -1871.361)" fill="#ff643b"/>
        </g>
        <path id="Trazado_105210" data-name="Trazado 105210" d="M4011.166,1891.413a.731.731,0,1,1-.178-1.026A.737.737,0,0,1,4011.166,1891.413Z" transform="translate(-4006.224 -1886.632)" fill="#ff643b"/>
      </g>
      <path id="Trazado_105211" data-name="Trazado 105211" d="M4040.5,1921.653a4.253,4.253,0,1,1-6.989-4.847l.021-.028a4.282,4.282,0,0,1,5.934-1.1,4.173,4.173,0,0,1,1.29,1.433A4.319,4.319,0,0,1,4040.5,1921.653Z" transform="translate(-4003.734 -1898.245)" fill="#ff863b"/>
      <g id="Grupo_60718" data-name="Grupo 60718" transform="translate(30.727 18.426)">
        <g id="Grupo_60717" data-name="Grupo 60717">
          <path id="Trazado_105212" data-name="Trazado 105212" d="M4046.644,1925.551a2.49,2.49,0,0,0-.891-1.114,2.555,2.555,0,0,0-3.543.664l0,0a2.533,2.533,0,1,0,4.438.445Zm-3.622,2.823a2.207,2.207,0,0,1-.532-3.07c.011-.016.022-.032.035-.047a2.2,2.2,0,0,1,3.027-.531,2.145,2.145,0,0,1,.757.932,2.226,2.226,0,0,1-3.287,2.716Z" transform="translate(-4041.743 -1923.991)" fill="#ff643b"/>
        </g>
        <path id="Trazado_105213" data-name="Trazado 105213" d="M4053.542,1935.743a.428.428,0,1,1-.1-.6A.431.431,0,0,1,4053.542,1935.743Z" transform="translate(-4050.646 -1932.941)" fill="#ff643b"/>
      </g>
      <path id="Trazado_105214" data-name="Trazado 105214" d="M3954.975,1913.184c-.108-.493-16.723-12.451-17.472-12.117s-7.416,9.761-7.415,10.878,16.589,12.491,17.439,12.293S3955.161,1914.036,3954.975,1913.184Z" transform="translate(-3920.787 -1887.035)" fill="#ff643b"/>
    </g>
    <g id="Grupo_60689" data-name="Grupo 60689" transform="translate(747.432 769.602)">
      <path id="Trazado_105176" data-name="Trazado 105176" d="M2380.895,1842.55a21.615,21.615,0,1,0,28.4,11.3A21.615,21.615,0,0,0,2380.895,1842.55Zm15.392,35.741a17.3,17.3,0,1,1,9.046-22.731A17.3,17.3,0,0,1,2396.287,1878.292Z" transform="translate(-2364.979 -1837.938)" fill="#79c5ee"/>
      <circle id="Elipse_1633" data-name="Elipse 1633" cx="17.299" cy="17.299" r="17.299" transform="translate(0 24.465) rotate(-45)" fill="#fff" opacity="0.5"/>
      <path id="Trazado_105177" data-name="Trazado 105177" d="M2581.647,1973.575s37.859,8.271,38.417,8.931c1.316,1.556-.323,6.323-2.346,6.553-1.191.136-37.417-10.593-37.417-10.593Z" transform="translate(-2536.684 -1945.249)" fill="#79c5ee"/>
      <ellipse id="Elipse_1634" data-name="Elipse 1634" cx="11.326" cy="4.994" rx="11.326" ry="4.994" transform="translate(7.134 29.647) rotate(-68.299)" fill="gray" style="mix-blend-mode: screen;isolation: isolate"/>
    </g>
    <g id="Grupo_60669" data-name="Grupo 60669" transform="translate(645.014 676.392)">
      <g id="Grupo_60661" data-name="Grupo 60661" transform="translate(27.041 77.728)">
        <path id="Trazado_105113" data-name="Trazado 105113" d="M2037.479,2036.422a2.184,2.184,0,0,0,.913,1.172c1.532.977,9.257,1.219,10.827-.309a.838.838,0,0,0,.277-.583c.02-.973-1.492-1.971-3.263-2.8-.117-.054-.234-.108-.352-.159-.418-.187-.845-.36-1.265-.526-.132-.053-.262-.1-.39-.149a27.2,27.2,0,0,0-3.308-1.036c-1.143-.226-1.486-.322-1.65-.179C2037.67,2033.242,2037.028,2035.1,2037.479,2036.422Z" transform="translate(-2037.338 -2031.79)" fill="#fe653b"/>
        <path id="Trazado_105114" data-name="Trazado 105114" d="M2038.071,2055.319a2.184,2.184,0,0,0,.913,1.172c1.532.977,9.257,1.219,10.827-.309l0,0C2042.863,2055.111,2039.578,2055.026,2038.071,2055.319Z" transform="translate(-2037.931 -2050.686)" fill="#f04936"/>
        <g id="Grupo_60660" data-name="Grupo 60660" transform="translate(5.06 1.283)">
          <g id="Grupo_60658" data-name="Grupo 60658">
            <path id="Trazado_105115" data-name="Trazado 105115" d="M2063.735,2039.63a.1.1,0,0,0,0,.138.108.108,0,0,0,.03.017.1.1,0,0,0,.108-.02,3.032,3.032,0,0,1,2.049-1.141c-.132-.053-.262-.1-.39-.149A3.592,3.592,0,0,0,2063.735,2039.63Z" transform="translate(-2063.708 -2038.474)" fill="#fff"/>
          </g>
          <g id="Grupo_60659" data-name="Grupo 60659" transform="translate(1.597 0.675)">
            <path id="Trazado_105116" data-name="Trazado 105116" d="M2072.056,2043.161a.1.1,0,0,0,0,.138.1.1,0,0,0,.027.015.1.1,0,0,0,.108-.02,3.022,3.022,0,0,1,2.072-1.142c-.117-.054-.234-.108-.352-.159A3.506,3.506,0,0,0,2072.056,2043.161Z" transform="translate(-2072.029 -2041.993)" fill="#fff"/>
          </g>
        </g>
      </g>
      <g id="Grupo_60665" data-name="Grupo 60665" transform="translate(0 69.397)">
        <path id="Trazado_105117" data-name="Trazado 105117" d="M1897.08,1989.271a2.181,2.181,0,0,0-.654,1.334c-.208,1.805,2.955,8.858,5.016,9.6a.837.837,0,0,0,.644-.006c.884-.408,1.12-2.2,1.086-4.158,0-.129-.005-.258-.011-.386-.015-.458-.046-.918-.081-1.368-.01-.142-.023-.281-.036-.416a27.164,27.164,0,0,0-.516-3.428c-.3-1.126-.361-1.477-.562-1.562C1900.024,1988.051,1898.07,1988.288,1897.08,1989.271Z" transform="translate(-1896.416 -1988.376)" fill="#fe653b"/>
        <path id="Trazado_105118" data-name="Trazado 105118" d="M1897.08,1993.04a2.181,2.181,0,0,0-.654,1.334c-.208,1.805,2.955,8.858,5.016,9.6l0,0C1899.364,1997.258,1898,1994.267,1897.08,1993.04Z" transform="translate(-1896.416 -1992.145)" fill="#f04936"/>
        <g id="Grupo_60664" data-name="Grupo 60664" transform="translate(4.676 4.378)">
          <g id="Grupo_60662" data-name="Grupo 60662">
            <path id="Trazado_105119" data-name="Trazado 105119" d="M1920.91,2011.194a.1.1,0,0,0-.123.063.113.113,0,0,0,0,.034.1.1,0,0,0,.065.089,3.033,3.033,0,0,1,1.923,1.343c-.01-.142-.023-.281-.036-.416A3.591,3.591,0,0,0,1920.91,2011.194Z" transform="translate(-1920.785 -2011.19)" fill="#fff"/>
          </g>
          <g id="Grupo_60663" data-name="Grupo 60663" transform="translate(0.081 1.736)">
            <path id="Trazado_105120" data-name="Trazado 105120" d="M1921.332,2020.244a.1.1,0,0,0-.123.063.093.093,0,0,0,0,.031.1.1,0,0,0,.065.089,3.023,3.023,0,0,1,1.934,1.363c0-.129-.005-.258-.011-.386A3.505,3.505,0,0,0,1921.332,2020.244Z" transform="translate(-1921.207 -2020.239)" fill="#fff"/>
          </g>
        </g>
      </g>
      <g id="Grupo_60666" data-name="Grupo 60666" transform="translate(23.224)">
        <path id="Trazado_105121" data-name="Trazado 105121" d="M2022.34,1640.731c-3.214-.988-2.739-2.91-2.739-2.91s-2.43-1.85-2.132-3.95a3.29,3.29,0,0,1,1.977-2.68s.391-3.84,3.058-4.385a3.548,3.548,0,0,1,3.7,1.482,3.8,3.8,0,0,1,5.152-.878,4.011,4.011,0,0,1,1.656,5.41s.969,2.085-.937,3.057S2022.34,1640.731,2022.34,1640.731Z" transform="translate(-2017.444 -1626.724)" fill="#40312a"/>
        <path id="Trazado_105122" data-name="Trazado 105122" d="M2031.364,1664.658c-.222,1.662,1.9,2.832,1.9,2.832s-3.336,8.606-3.012,9.052,6.08,1.983,5.132.942c-.493-.542-.441-1.943-.278-3.161a20.169,20.169,0,0,1,.4-2.108,1.21,1.21,0,0,0,.064.1,2.994,2.994,0,0,0,3.016,1.382c1.908-.432,3.8-4.868,3.821-8.764a1.71,1.71,0,0,1-1.931-.074,3.228,3.228,0,0,1-1.464-2.18s-1.572,2.112-3.5,2.21S2031.586,1663,2031.364,1664.658Z" transform="translate(-2027.775 -1655.781)" fill="#fec6ab"/>
        <path id="Trazado_105123" data-name="Trazado 105123" d="M2081.34,1682.52c.482,1.5.31,3.531.06,3.685s-1.113-.26-1.222-.467A22.535,22.535,0,0,1,2081.34,1682.52Z" transform="translate(-2068.135 -1671.813)" fill="#fd9b73"/>
        <path id="Trazado_105124" data-name="Trazado 105124" d="M2049.682,1698.284c-.026.229-.378,3.69,1.1,4.81a20.155,20.155,0,0,1,.4-2.108A9.961,9.961,0,0,1,2049.682,1698.284Z" transform="translate(-2043.452 -1684.553)" fill="#fd9b73"/>
      </g>
      <path id="Trazado_105125" data-name="Trazado 105125" d="M2025.347,1843.5c4.839,13.188,2.441,34.4,1.98,35.136s-4.611,1.291-5.718.369-3.32-9.867-2.859-15.309-2.615-19.551-.062-21.58S2025.347,1843.5,2025.347,1843.5Z" transform="translate(-1994.397 -1800.263)" fill="#367394"/>
      <path id="Trazado_105126" data-name="Trazado 105126" d="M1942.862,1857.8c-1.937,2.928-17.207,11.5-18.613,11.29-1.007-.146-2.659-2.067-3.243-4a3.827,3.827,0,0,1-.108-.4,3.355,3.355,0,0,1,.015-1.768c.738-2.306,11.9-10.144,11.9-10.144s-4.381-13.595.991-16.946a12.861,12.861,0,0,1,10.905-1.083C1944.752,1842.909,1944.8,1854.875,1942.862,1857.8Z" transform="translate(-1916.111 -1794.233)" fill="#5091b9"/>
      <g id="Grupo_60667" data-name="Grupo 60667" transform="translate(4.787 41.075)">
        <path id="Trazado_105127" data-name="Trazado 105127" d="M1937.694,1858.419c-.646,1.453-6.6,5.533-11.85,9.122-1.483,1.014-3.051,2.09-4.373,3.028a3.83,3.83,0,0,1-.107-.4c1.153-.814,2.582-1.791,4.265-2.943,4.949-3.389,11.113-7.608,11.712-8.961.392-.884-.015-3.043-.484-5.533-.792-4.242-1.791-9.522.523-11.95l.277.261c-2.175,2.29-1.2,7.462-.415,11.612C1937.74,1855.322,1938.132,1857.428,1937.694,1858.419Z" transform="translate(-1921.363 -1840.782)" fill="#fff"/>
      </g>
      <path id="Trazado_105128" data-name="Trazado 105128" d="M1914.719,1845.646c-.117,1.815-.558,4.613-1.194,4.564s-.483-1.914-.483-1.914-2.012,3.828-3.48,3.141-1.224-5.791,2.153-7.361S1914.719,1845.646,1914.719,1845.646Z" transform="translate(-1906.349 -1802.012)" fill="#fec6ab"/>
      <path id="Trazado_105129" data-name="Trazado 105129" d="M1939.661,1724.814a5.183,5.183,0,0,0,4.309,1.449s5.725,2.107,8.81,5.335,8.958,12.137,6.768,13.28c-4.422,2.307-11.593-4.7-11.593-4.7s-2.506,8.669-3.478,9.038-12.548-.738-13.261-1.844,0-11.712,0-11.712-7.353,14.387-8.921,14.571-4.611-1.291-4.7-2.214,4.076-14.017,10.79-19.458A17.335,17.335,0,0,1,1939.661,1724.814Z" transform="translate(-1913.527 -1705.978)" fill="#ffab3b"/>
      <path id="Trazado_105130" data-name="Trazado 105130" d="M2006.027,1785.84c3.689-.369,17.707,3.142,17.707,3.142l-7.295,2.664Z" transform="translate(-1984.994 -1755.285)" fill="#f04936"/>
      <path id="Trazado_105131" data-name="Trazado 105131" d="M2013.064,1792.238s-10.528-4.8-10.9-5.3c-.2-.262.092-.987.692-.987s10.974,5.579,10.974,5.579Z" transform="translate(-1981.826 -1755.4)" fill="#ff643b"/>
      <path id="Trazado_105132" data-name="Trazado 105132" d="M2078.737,1773.533c-.254.254-2.506.269-5.4.161-.661-.031-1.361-.062-2.075-.1l-1.1-.069c-2.874-.169-5.887-.407-8.023-.646-1.821-.2-3-.392-2.936-.53,0,0,4.527-10.575,5.495-10.921a97.4,97.4,0,0,1,10.475.146c2.105.1,4.2.231,5.948.377.207.015.415.038.615.054.292.031.568.054.83.085,1.683.177,2.8.376,2.882.584C2085.792,1763.573,2079.5,1772.773,2078.737,1773.533Z" transform="translate(-2027.962 -1735.509)" fill="#ff643b"/>
      <g id="Grupo_60668" data-name="Grupo 60668" transform="translate(34.175 26.066)">
        <path id="Trazado_105133" data-name="Trazado 105133" d="M2093.494,1762.942l-10.959,11.574c-2.874-.169-5.887-.407-8.023-.646l13.034-11.3C2089.652,1762.665,2091.75,1762.8,2093.494,1762.942Z" transform="translate(-2074.512 -1762.565)" fill="#1a1a1a" style="mix-blend-mode: screen;isolation: isolate"/>
        <path id="Trazado_105134" data-name="Trazado 105134" d="M2133.356,1764.893l-9.23,11.6c-.661-.031-1.36-.062-2.075-.1l10.475-11.589C2132.818,1764.839,2133.095,1764.862,2133.356,1764.893Z" transform="translate(-2112.929 -1764.378)" fill="#1a1a1a" style="mix-blend-mode: screen;isolation: isolate"/>
      </g>
      <path id="Trazado_105135" data-name="Trazado 105135" d="M2128.9,1816.7c-.772-1.316,2.361-3.4,3.659-3s2.592,1.964,2.061,2.872c-.764,1.3-2.859.414-2.859.414S2129.815,1818.262,2128.9,1816.7Z" transform="translate(-2084.191 -1777.781)" fill="#fec6ab"/>
    </g>
    <g id="Grupo_60713" data-name="Grupo 60713" transform="translate(548.13 770.243)">
      <path id="Trazado_105193" data-name="Trazado 105193" d="M1317.02,1845.17c-.127-1.975,38.445-14.116,40.074-11.372,1.681,2.832,10.992,29.912,9.949,32.485-.73,1.8-37.373,13.506-39.066,11.965S1317.28,1849.21,1317.02,1845.17Z" transform="translate(-1317.019 -1833.396)" fill="#ffca28"/>
      <g id="Grupo_60712" data-name="Grupo 60712" transform="translate(9.302 6.498)">
        <path id="Trazado_105194" data-name="Trazado 105194" d="M1375.886,1872.214q-1.143.35-2.429.823a14.1,14.1,0,0,0-3.949,1.984,5.1,5.1,0,0,0-1.665,2.635,10.527,10.527,0,0,0-.2,3.833l-.429.092-1.725-6.8,24.561-7.522,2.378,6.6-.406.164a9.154,9.154,0,0,0-2.7-3.352,6.037,6.037,0,0,0-3.611-.929,24.134,24.134,0,0,0-5.868,1.261l5.671,18.516a13.818,13.818,0,0,0,1.051,2.686,3.188,3.188,0,0,0,2.611,1.653,6.145,6.145,0,0,0,1.768-.224l.128.417-11.6,3.553-.128-.418a6.2,6.2,0,0,0,1.608-.81,3.2,3.2,0,0,0,1.24-2.822,13.82,13.82,0,0,0-.636-2.823Z" transform="translate(-1365.493 -1867.259)" fill="#ffab3b"/>
      </g>
    </g>
    <g id="Grupo_60638" data-name="Grupo 60638" transform="translate(389.564 637.151)">
      <g id="Grupo_60629" data-name="Grupo 60629" transform="translate(24.144 112.811)">
        <path id="Trazado_105056" data-name="Trazado 105056" d="M691.058,2013.545a2.419,2.419,0,0,0,.237,1.629c.94,1.781,8.245,6.251,10.595,5.64a.926.926,0,0,0,.586-.409c.553-.926-.356-2.716-1.609-4.482-.083-.116-.166-.233-.252-.346-.3-.409-.617-.811-.93-1.2-.1-.124-.2-.242-.294-.357a30.149,30.149,0,0,0-2.617-2.812c-.977-.844-1.254-1.125-1.491-1.077C692.987,2010.587,691.348,2012.027,691.058,2013.545Z" transform="translate(-691.008 -2010.125)" fill="#fe653b"/>
        <path id="Trazado_105057" data-name="Trazado 105057" d="M691.058,2027.949a2.419,2.419,0,0,0,.237,1.629c.94,1.781,8.245,6.251,10.595,5.64v-.005C695.786,2030.377,692.669,2028.493,691.058,2027.949Z" transform="translate(-691.008 -2024.529)" fill="#f04936"/>
        <g id="Grupo_60628" data-name="Grupo 60628" transform="translate(5.939 3.769)">
          <g id="Grupo_60626" data-name="Grupo 60626">
            <path id="Trazado_105058" data-name="Trazado 105058" d="M722.034,2030.019a.11.11,0,0,0-.073.135.132.132,0,0,0,.02.032.107.107,0,0,0,.115.04,3.361,3.361,0,0,1,2.6.025c-.1-.124-.2-.242-.294-.357A3.981,3.981,0,0,0,722.034,2030.019Z" transform="translate(-721.958 -2029.768)" fill="#fff"/>
          </g>
          <g id="Grupo_60627" data-name="Grupo 60627" transform="translate(1.161 1.537)">
            <path id="Trazado_105059" data-name="Trazado 105059" d="M728.086,2038.029a.107.107,0,0,0-.073.135.1.1,0,0,0,.017.029.106.106,0,0,0,.115.04,3.35,3.35,0,0,1,2.621.036c-.083-.116-.166-.233-.252-.346A3.884,3.884,0,0,0,728.086,2038.029Z" transform="translate(-728.009 -2037.777)" fill="#fff"/>
          </g>
        </g>
      </g>
      <path id="Trazado_105060" data-name="Trazado 105060" d="M779.952,1505.581a8.921,8.921,0,0,1,2.9,3.464,1.8,1.8,0,0,0,.59.035,10.64,10.64,0,0,0,1.566-2.708c7.217-14.59,36.073-83.216,34.781-84.138-1.049-.748-39.07,66.325-44.8,78.5a8.18,8.18,0,0,0-.719,1.808,2.423,2.423,0,0,0,.48,1.374A8.945,8.945,0,0,1,779.952,1505.581Z" transform="translate(-734.15 -1422.229)" fill="#367394"/>
      <g id="Grupo_60630" data-name="Grupo 60630" transform="translate(28.394 78.5)">
        <path id="Trazado_105061" data-name="Trazado 105061" d="M718.258,1853.418a12.181,12.181,0,1,0-2.84-16.994A12.2,12.2,0,0,0,718.258,1853.418Zm1.848-2.589a9,9,0,0,1,10.458-14.656,9.016,9.016,0,0,1,2.1,12.557A9.014,9.014,0,0,1,720.106,1850.828Z" transform="translate(-713.157 -1831.321)" fill="#79c5ee"/>
      </g>
      <g id="Grupo_60632" data-name="Grupo 60632" transform="translate(8.317 48.059)">
        <path id="Trazado_105062" data-name="Trazado 105062" d="M711.933,1688.808a8.919,8.919,0,0,1-1.137,4.37,1.789,1.789,0,0,0,.314.5,10.633,10.633,0,0,0,3.113-.3c16.068-2.6,88.691-18.975,88.691-20.561,0-1.288-76.683,6.724-89.916,9.133a8.179,8.179,0,0,0-1.889.465,2.423,2.423,0,0,0-.839,1.189A8.945,8.945,0,0,1,711.933,1688.808Z" transform="translate(-690.747 -1672.68)" fill="#79c5ee"/>
        <g id="Grupo_60631" data-name="Grupo 60631" transform="translate(0 3.945)">
          <path id="Trazado_105063" data-name="Trazado 105063" d="M608.527,1705.42A12.183,12.183,0,0,0,632,1709.992a12.181,12.181,0,0,0-22.224-9.945,11.629,11.629,0,0,0-.883,2.4A12.022,12.022,0,0,0,608.527,1705.42Zm3.181,0a8.908,8.908,0,0,1,.541-3.066,8.6,8.6,0,0,1,.716-1.511,8.994,8.994,0,1,1-1.257,4.577Z" transform="translate(-608.527 -1693.236)" fill="#79c5ee"/>
        </g>
      </g>
      <path id="Trazado_105064" data-name="Trazado 105064" d="M573.871,1691.472c.322.024.656.028,1,.02.938-.024,1.718-.064,2.354-.112a8.612,8.612,0,0,1,.716-1.511c-.752-.207-1.443-.346-1.443-.346a11.549,11.549,0,0,1-1.742-.449c-6.6-2.242-5.046-9.042-7.237-9.388C563.139,1678.994,564.742,1690.907,573.871,1691.472Z" transform="translate(-565.184 -1630.259)" fill="#79c5ee"/>
      <circle id="Elipse_1631" data-name="Elipse 1631" cx="2.899" cy="2.899" r="2.899" transform="translate(53.555 58.182) rotate(-45)" fill="#367394"/>
      <path id="Trazado_105065" data-name="Trazado 105065" d="M714.205,1689.1c-3.722,4.008-1.933,7.086-4.08,10.163s-12.525,3.436-11.165,8.159,6.442,3.793,6.442,3.793-.859,7.945,8.088,6.012,6.179-29.273,6.179-29.273Z" transform="translate(-673.191 -1636.963)" fill="#40312a"/>
      <path id="Trazado_105066" data-name="Trazado 105066" d="M722.018,1806.008c-9.846,4.01-7.7,13.629-10.087,16.874s-5.408,5.885-6.657,12.253-1.293,10.346-.685,11.376,3.178,1.566,3.422,1.156,3.9-9.123,7.243-14.349,13.8-18.991,13.7-20.5S722.018,1806.008,722.018,1806.008Z" transform="translate(-677.53 -1732.365)" fill="#367394"/>
      <g id="Grupo_60636" data-name="Grupo 60636" transform="translate(46.01 116.349)">
        <path id="Trazado_105067" data-name="Trazado 105067" d="M805.133,2033.741a2.42,2.42,0,0,0,1.039,1.277c1.72,1.046,10.285,1.135,11.988-.595a.928.928,0,0,0,.293-.652c0-1.079-1.7-2.149-3.68-3.022-.131-.057-.262-.115-.394-.168-.467-.2-.945-.379-1.414-.553-.148-.056-.293-.107-.435-.156a30.133,30.133,0,0,0-3.689-1.071c-1.272-.224-1.654-.322-1.833-.16C805.271,2030.212,804.6,2032.289,805.133,2033.741Z" transform="translate(-804.956 -2028.561)" fill="#fe653b"/>
        <path id="Trazado_105068" data-name="Trazado 105068" d="M805.88,2054.658a2.421,2.421,0,0,0,1.039,1.277c1.721,1.047,10.285,1.135,11.988-.595l0,0C811.184,2054.316,807.542,2054.3,805.88,2054.658Z" transform="translate(-805.703 -2049.478)" fill="#f04936"/>
        <g id="Grupo_60635" data-name="Grupo 60635" transform="translate(5.578 1.311)">
          <g id="Grupo_60633" data-name="Grupo 60633">
            <path id="Trazado_105069" data-name="Trazado 105069" d="M834.052,2036.715a.111.111,0,0,0,.007.153.131.131,0,0,0,.034.018.107.107,0,0,0,.119-.024,3.36,3.36,0,0,1,2.243-1.312c-.148-.056-.293-.107-.435-.156A3.981,3.981,0,0,0,834.052,2036.715Z" transform="translate(-834.025 -2035.393)" fill="#fff"/>
          </g>
          <g id="Grupo_60634" data-name="Grupo 60634" transform="translate(1.785 0.71)">
            <path id="Trazado_105070" data-name="Trazado 105070" d="M843.355,2040.428a.107.107,0,0,0,.007.153.111.111,0,0,0,.03.016.106.106,0,0,0,.119-.025,3.35,3.35,0,0,1,2.268-1.314c-.131-.057-.262-.115-.394-.168A3.884,3.884,0,0,0,843.355,2040.428Z" transform="translate(-843.327 -2039.091)" fill="#fff"/>
          </g>
        </g>
      </g>
      <path id="Trazado_105071" data-name="Trazado 105071" d="M778.1,1621.473c-.1-.143-7.539-2.72-6.919-8.971s6.346-4.819,6.346-4.819a3.632,3.632,0,0,1,5.249-1.336c2.557,1.548,1.909,4.676,1.288,5.106S778.1,1621.473,778.1,1621.473Z" transform="translate(-731.626 -1570.483)" fill="#40312a"/>
      <path id="Trazado_105072" data-name="Trazado 105072" d="M779.278,1673.061c-1.645,1.241-5.009,1.483-5.689.789s-1.442-5.358.609-5.388,6.25,3.453,5.916,4.408S779.278,1673.061,779.278,1673.061Z" transform="translate(-733.016 -1621.213)" fill="#fe9031"/>
      <path id="Trazado_105073" data-name="Trazado 105073" d="M842.931,1644.728a6.57,6.57,0,0,1,1.961,2.521c-.024.238-1.455.573-1.455.573Z" transform="translate(-789.634 -1602.033)" fill="#fd9b73"/>
      <path id="Trazado_105074" data-name="Trazado 105074" d="M794.014,1639.865s-1.1,7.062,0,8.207,5.344.382,4.771.143c-.35-.147-.93-2.183-1.332-3.746-.25-.986-.43-1.781-.43-1.781s0,0,.008.008a.242.242,0,0,0,.024.016,1.49,1.49,0,0,0,.2.131l.02.012a3.722,3.722,0,0,0,3.177.159c2.5-.887,2.29-5.249-.191-9.686a3.243,3.243,0,0,0-2.29-.525c-1.241.238-.764,1.908-2.195,2.672s-4.772.477-4.581,2.529S794.014,1639.865,794.014,1639.865Z" transform="translate(-747.823 -1592.359)" fill="#fec6ab"/>
      <path id="Trazado_105075" data-name="Trazado 105075" d="M821.755,1684.636a1.49,1.49,0,0,0,.2.131A2.162,2.162,0,0,0,821.755,1684.636Z" transform="translate(-772.522 -1634.283)" fill="#fd9b73"/>
      <path id="Trazado_105076" data-name="Trazado 105076" d="M812.389,1676.8c.032.167.533,2.572,2.195,3.261-.25-.986-.429-1.781-.429-1.781A5.922,5.922,0,0,1,812.389,1676.8Z" transform="translate(-764.953 -1627.954)" fill="#fd9b73"/>
      <path id="Trazado_105077" data-name="Trazado 105077" d="M771.159,1830.45c-.382,4.008-1.622,7.825.573,13.933s4.2,9.543,5.249,10.116a2.8,2.8,0,0,0,1.734.111c.135-.028.266-.056.394-.087.768-.2,1.4-.545,1.4-.787,0-.477-1.336-9.83-1.145-16.032s2.1-23.381,1.241-24.621c-.378-.549-2.262-1.058-4.25-1.459-.131-.024-.263-.048-.39-.076-2.4-.461-4.807-.755-4.807-.755C764.765,1819.285,771.541,1826.442,771.159,1830.45Z" transform="translate(-729.405 -1736.23)" fill="#5091b9"/>
      <g id="Grupo_60637" data-name="Grupo 60637" transform="translate(46.278 73.969)">
        <path id="Trazado_105078" data-name="Trazado 105078" d="M809.387,1852.116c.135-.028.266-.056.394-.088-2.255-8.35-3.678-31.528-2.752-42.9.036-.481.079-.942.127-1.38l-.394-.044c-.047.422-.087.875-.123,1.348C805.764,1819.891,806.985,1843.4,809.387,1852.116Z" transform="translate(-806.356 -1807.704)" fill="#fff"/>
      </g>
      <path id="Trazado_105079" data-name="Trazado 105079" d="M782.644,1706.468a24.83,24.83,0,0,0,9.448,2.29l3.77-12.334a23.724,23.724,0,0,0,10.784-.644c5.964-1.634,9.3-8.78,9.3-8.78s2.386-.811,3.674-1.431,2.958-3.054,1.785-3.75-5.221,1.793-5.221,1.793,0-1.766-.811-1.623-1.527,3.674-1.527,3.674-6.49,3.817-12.311,4.215-10.116-5.265-14.836-3.253S782.644,1706.468,782.644,1706.468Z" transform="translate(-740.891 -1631.907)" fill="#ffb03a"/>
      <path id="Trazado_105080" data-name="Trazado 105080" d="M945.4,1685.664a3.253,3.253,0,0,0,2.1,1.336s2.386-.811,3.674-1.431,2.958-3.054,1.785-3.75-5.221,1.793-5.221,1.793,0-1.766-.811-1.623S945.4,1685.664,945.4,1685.664Z" transform="translate(-872.443 -1631.907)" fill="#fec6ab"/>
    </g>
    <g id="Grupo_60608" data-name="Grupo 60608" transform="translate(1212.375 690.867)">
      <path id="Trazado_105022" data-name="Trazado 105022" d="M4822.362,1732.68c24.7-29.993,52.4-38.643,56.631-22.548s-60.05,33.879-59.472,40.342S4822.362,1732.68,4822.362,1732.68Z" transform="translate(-4817.656 -1702.16)" fill="#ffab3b"/>
      <g id="Grupo_60606" data-name="Grupo 60606" transform="translate(0 7.639)">
        <path id="Trazado_105023" data-name="Trazado 105023" d="M4810.4,1778.008a.581.581,0,0,1-.468-.926c.229-.312,23.317-31.273,54.237-35.111a.588.588,0,0,1,.649.506.582.582,0,0,1-.506.649c-30.417,3.775-53.216,34.336-53.443,34.644A.58.58,0,0,1,4810.4,1778.008Z" transform="translate(-4809.816 -1741.968)" fill="#ffd194"/>
      </g>
      <g id="Grupo_60607" data-name="Grupo 60607" transform="translate(27.503 17.537)">
        <path id="Trazado_105024" data-name="Trazado 105024" d="M4965.6,1794.763h0l-11.875-.046a.582.582,0,0,1,0-1.164h0l11.876.046a.582.582,0,0,1,0,1.164Z" transform="translate(-4953.142 -1793.553)" fill="#ffd194"/>
      </g>
    </g>
    <g id="Grupo_60674" data-name="Grupo 60674" transform="translate(1122.615 676.392)">
      <g id="Grupo_60673" data-name="Grupo 60673" transform="translate(20.027 77.503)">
        <path id="Trazado_105136" data-name="Trazado 105136" d="M4502.319,2035.519a2.288,2.288,0,0,1-.983,1.207c-1.627.989-9.725,1.067-11.334-.569a.875.875,0,0,1-.276-.616c0-1.02,1.607-2.031,3.481-2.855.125-.054.248-.108.373-.158.442-.187.894-.358,1.336-.522.14-.053.278-.1.412-.147a28.534,28.534,0,0,1,3.489-1.011c1.2-.211,1.563-.3,1.733-.15C4502.19,2032.183,4502.821,2034.147,4502.319,2035.519Z" transform="translate(-4489.726 -2030.621)" fill="#fe653b"/>
        <path id="Trazado_105137" data-name="Trazado 105137" d="M4503.483,2055.3a2.286,2.286,0,0,1-.983,1.207c-1.627.989-9.724,1.067-11.333-.569l0,0C4498.468,2054.969,4501.912,2054.954,4503.483,2055.3Z" transform="translate(-4490.89 -2050.397)" fill="#f04936"/>
        <g id="Grupo_60672" data-name="Grupo 60672" transform="translate(3.481 1.237)">
          <g id="Grupo_60670" data-name="Grupo 60670" transform="translate(1.709)">
            <path id="Trazado_105138" data-name="Trazado 105138" d="M4519.049,2038.317a.1.1,0,0,1-.007.145.116.116,0,0,1-.032.017.1.1,0,0,1-.113-.023,3.179,3.179,0,0,0-2.121-1.242c.14-.053.277-.1.412-.147A3.764,3.764,0,0,1,4519.049,2038.317Z" transform="translate(-4516.777 -2037.066)" fill="#fff"/>
          </g>
          <g id="Grupo_60671" data-name="Grupo 60671" transform="translate(0 0.67)">
            <path id="Trazado_105139" data-name="Trazado 105139" d="M4510.161,2041.823a.1.1,0,0,1-.007.145.091.091,0,0,1-.028.015.1.1,0,0,1-.113-.023,3.167,3.167,0,0,0-2.144-1.244c.124-.054.247-.108.372-.158A3.671,3.671,0,0,1,4510.161,2041.823Z" transform="translate(-4507.869 -2040.557)" fill="#fff"/>
          </g>
        </g>
      </g>
      <path id="Trazado_105140" data-name="Trazado 105140" d="M4534.48,1632.722c-.47-3.385,1.406-6,3.559-6s3.148,3,3.148,3,2.1-3.662,4.976-2.115.608,5.473.608,5.473,4.92-1.05,5.583,2.709-3.538,4.829-3.538,4.829,5.307,3.131,4.422,6.062a3.156,3.156,0,0,1-3.814,2.211s5.141,6.965-2.377,8.9-8.33-17.173-8.33-17.173a8.959,8.959,0,0,1-3.556-3.723A7.489,7.489,0,0,1,4534.48,1632.722Z" transform="translate(-4505.806 -1626.724)" fill="#40312a"/>
      <path id="Trazado_105141" data-name="Trazado 105141" d="M4521.642,1669.619a6.953,6.953,0,0,0-1.819,3.041,1.662,1.662,0,0,0,1.337.393C4521.464,1672.914,4521.642,1669.619,4521.642,1669.619Z" transform="translate(-4494.015 -1661.388)" fill="#fd9b73"/>
      <path id="Trazado_105142" data-name="Trazado 105142" d="M4533.753,1665.615s1.529,6.8.719,7.684-5.381.442-4.865-.3a10.822,10.822,0,0,0,.811-2.586c.215-.977.369-1.837.369-1.837s-2.506,1.4-4.275,0-1.7-6.843.59-10.583c0,0,0,1.443,1.179,1.738a2.278,2.278,0,0,0,1.99-.442s.608,2.875,1.787,3.1,3.667-1.179,3.962.589S4533.753,1665.615,4533.753,1665.615Z" transform="translate(-4498.427 -1651.997)" fill="#fec6ab"/>
      <path id="Trazado_105143" data-name="Trazado 105143" d="M4525.591,1911.357c-1.843,5.233.225,23.071.741,23.955a1.905,1.905,0,0,0,2.948,0c.958-.958,2.529-7.135,2.433-9.656a26.547,26.547,0,0,0-1.032-5.307l3.317-7.445Z" transform="translate(-4498.076 -1856.739)" fill="#fec6ab"/>
      <path id="Trazado_105144" data-name="Trazado 105144" d="M4392.3,1741.486c-1.8-.961-6.828-.961-6.938.311s5.8,3.041,6.689,2.654S4392.3,1741.486,4392.3,1741.486Z" transform="translate(-4385.357 -1718.91)" fill="#fec6ab"/>
      <path id="Trazado_105145" data-name="Trazado 105145" d="M4447.264,1726.652c-4.458.132-9.253,2.827-16.439,3.712s-11.057-.885-12.383-.553-1.548,2.875-1.105,3.98,7.3,3.317,12.051,3.87a28.607,28.607,0,0,0,7.74,0s-6.844,26.244-5.791,27.4c2.4,2.636,20.988,2.056,20.928,0C4451.38,1734.727,4447.264,1726.652,4447.264,1726.652Z" transform="translate(-4411.032 -1707.477)" fill="#ff643b"/>
      <path id="Trazado_105146" data-name="Trazado 105146" d="M4554.3,1703.516c-.049.2-.811,3.1-2.224,3.685.215-.977.369-1.836.369-1.836A8.014,8.014,0,0,0,4554.3,1703.516Z" transform="translate(-4520.082 -1688.781)" fill="#fd9b73"/>
    </g>
    <g id="Grupo_60690" data-name="Grupo 60690" transform="translate(962.805 641.335)">
      <path id="Trazado_105178" data-name="Trazado 105178" d="M3554.94,1446.774c2-.592,55.072-2.745,55.072-2.745l19.865,7.185-21.868,8.085s-55.078-1.736-55.3-3.372C3551.768,1449.07,3554.94,1446.774,3554.94,1446.774Z" transform="translate(-3552.533 -1444.029)" fill="#ffab3b"/>
      <path id="Trazado_105179" data-name="Trazado 105179" d="M3841.639,1459.3l2-15.27,13.572,4.909.237,4.515Z" transform="translate(-3786.162 -1444.029)" fill="#ffd194"/>
      <ellipse id="Elipse_1635" data-name="Elipse 1635" cx="18.807" cy="2.017" rx="18.807" ry="2.017" transform="translate(15.253 2.804) rotate(-2.541)" fill="#333" style="mix-blend-mode: screen;isolation: isolate"/>
    </g>
    <g id="Grupo_60625" data-name="Grupo 60625" transform="translate(869.237 672.463)">
      <g id="Grupo_60620" data-name="Grupo 60620" transform="translate(45.774 80.741)">
        <path id="Trazado_105040" data-name="Trazado 105040" d="M3303.611,2032.219a2.469,2.469,0,0,0,1.022,1.337c1.73,1.125,10.519,1.511,12.328-.192a.943.943,0,0,0,.323-.654c.037-1.1-1.669-2.248-3.674-3.205-.132-.063-.265-.125-.4-.185-.473-.218-.957-.419-1.432-.612-.15-.062-.3-.119-.442-.174a31.1,31.1,0,0,0-3.75-1.218c-1.3-.272-1.687-.385-1.876-.226C3303.876,2028.629,3303.117,2030.722,3303.611,2032.219Z" transform="translate(-3303.464 -2027.016)" fill="#fe653b"/>
        <path id="Trazado_105041" data-name="Trazado 105041" d="M3304.232,2053.549a2.468,2.468,0,0,0,1.022,1.336c1.73,1.126,10.519,1.512,12.328-.191l0-.005C3309.69,2053.384,3305.952,2053.24,3304.232,2053.549Z" transform="translate(-3304.085 -2048.347)" fill="#f04936"/>
        <g id="Grupo_60619" data-name="Grupo 60619" transform="translate(5.778 1.517)">
          <g id="Grupo_60617" data-name="Grupo 60617">
            <path id="Trazado_105042" data-name="Trazado 105042" d="M3333.607,2036.2a.111.111,0,0,0,0,.156.132.132,0,0,0,.034.019.11.11,0,0,0,.123-.021,3.462,3.462,0,0,1,2.349-1.259c-.15-.062-.3-.119-.441-.174A4.091,4.091,0,0,0,3333.607,2036.2Z" transform="translate(-3333.576 -2034.923)" fill="#fff"/>
          </g>
          <g id="Grupo_60618" data-name="Grupo 60618" transform="translate(1.807 0.787)">
            <path id="Trazado_105043" data-name="Trazado 105043" d="M3343.027,2040.315a.1.1,0,0,0,.032.173.11.11,0,0,0,.124-.021,3.451,3.451,0,0,1,2.375-1.26c-.132-.062-.265-.125-.4-.185A4,4,0,0,0,3343.027,2040.315Z" transform="translate(-3342.995 -2039.022)" fill="#fff"/>
          </g>
        </g>
      </g>
      <g id="Grupo_60624" data-name="Grupo 60624" transform="translate(6.109 80.741)">
        <path id="Trazado_105044" data-name="Trazado 105044" d="M3110.429,2032.219a2.469,2.469,0,0,1-1.022,1.337c-1.73,1.125-10.52,1.511-12.328-.192a.944.944,0,0,1-.323-.654c-.037-1.1,1.67-2.248,3.674-3.205.132-.063.265-.125.4-.185.473-.218.958-.419,1.432-.612.15-.062.3-.119.441-.174a31.113,31.113,0,0,1,3.75-1.218c1.3-.272,1.686-.385,1.876-.226C3110.165,2028.629,3110.923,2030.722,3110.429,2032.219Z" transform="translate(-3096.755 -2027.016)" fill="#fe653b"/>
        <path id="Trazado_105045" data-name="Trazado 105045" d="M3111.793,2053.549a2.467,2.467,0,0,1-1.022,1.336c-1.73,1.126-10.52,1.512-12.328-.191l0-.005C3106.335,2053.384,3110.073,2053.24,3111.793,2053.549Z" transform="translate(-3098.118 -2048.347)" fill="#f04936"/>
        <g id="Grupo_60623" data-name="Grupo 60623" transform="translate(3.674 1.517)">
          <g id="Grupo_60621" data-name="Grupo 60621" transform="translate(1.831)">
            <path id="Trazado_105046" data-name="Trazado 105046" d="M3127.951,2036.2a.112.112,0,0,1,0,.156.132.132,0,0,1-.034.019.11.11,0,0,1-.124-.021,3.461,3.461,0,0,0-2.349-1.259c.15-.062.3-.119.442-.174A4.094,4.094,0,0,1,3127.951,2036.2Z" transform="translate(-3125.443 -2034.923)" fill="#fff"/>
          </g>
          <g id="Grupo_60622" data-name="Grupo 60622" transform="translate(0 0.787)">
            <path id="Trazado_105047" data-name="Trazado 105047" d="M3118.432,2040.315a.108.108,0,0,1,0,.156.118.118,0,0,1-.153,0,3.452,3.452,0,0,0-2.375-1.26c.132-.062.265-.125.4-.185A4,4,0,0,1,3118.432,2040.315Z" transform="translate(-3115.902 -2039.022)" fill="#fff"/>
          </g>
        </g>
      </g>
      <path id="Trazado_105048" data-name="Trazado 105048" d="M3212.857,1613.487c-.961-3.1.06-6.85,2.821-7.207a3.274,3.274,0,0,1,3.542,2.323s2.521-3.1,5.823-1.31,1.621,6.195,1.621,6.195a3.7,3.7,0,0,1,2.341,3.574c-.12,2.681-3.242,2.919-3.242,2.919s1.9,5.268-3.43,3.8-8.876-6.6-8.936-7.369S3212.857,1613.487,3212.857,1613.487Z" transform="translate(-3184.185 -1606.247)" fill="#40312a"/>
      <path id="Trazado_105049" data-name="Trazado 105049" d="M3214.753,1654.965a5.085,5.085,0,0,0,3.415.1l.007-.007s-.073.735-.193,1.708c-.207,1.694-.567,4.117-.947,4.606-.6.774,4.022.179,5.1-.6s-.24-9.947-.24-9.947,3.242-1.37,2.4-3.1-2.7-.417-4.923-.357-3.242-3.4-3.242-3.4a2.951,2.951,0,0,1-1.8,1.072c-1.081.119-1.5-1.072-1.5-1.072C3211.991,1649.875,3212.625,1653.846,3214.753,1654.965Z" transform="translate(-3184.159 -1636.738)" fill="#fec6ab"/>
      <path id="Trazado_105050" data-name="Trazado 105050" d="M3073.308,1635.545c.16-.9-2.623-3.983-3.1-3.983s0,2.284,0,2.284-4.335-3.292-5.191-1.965,4.5,6.585,6.636,6S3073.308,1635.545,3073.308,1635.545Z" transform="translate(-3064.921 -1626.704)" fill="#fec6ab"/>
      <path id="Trazado_105051" data-name="Trazado 105051" d="M3393.417,1641.448c.72-1.43,4.8-4.467,5.163-4.11s-.3,2.561-.3,2.561,4.383-2.084,5.223-1.31-3.062,6.374-7.8,5.659S3393.417,1641.448,3393.417,1641.448Z" transform="translate(-3329.866 -1631.348)" fill="#fec6ab"/>
      <path id="Trazado_105052" data-name="Trazado 105052" d="M3159.361,1843.568c3.082,5.321,11.847,33.674,11.006,34.865s-7.2,1.549-8.644.715-10.446-24.541-10.446-24.541-10.806,24.616-12.487,25-8.4.26-9-1.169,11.646-32.284,14.848-34.865C3148.272,1840.635,3159.361,1843.568,3159.361,1843.568Z" transform="translate(-3117.321 -1796.976)" fill="#5091b9"/>
      <path id="Trazado_105053" data-name="Trazado 105053" d="M3128.417,1662.926c-3.4,1.75-4.786.508-4.791.542s-23.713-13.517-25.288-13.183-2.776,1.944-2.215,3.124,18.73,16.985,18.73,16.985,1.121,16.361,2.481,18.028,13.047,1.192,14.728,0,3.282-17.234,3.282-17.234,20.851-15.447,20.511-16.46-1.1-2.681-2.281-2.8S3128.417,1662.926,3128.417,1662.926Z" transform="translate(-3090.023 -1641.829)" fill="#79c5ee"/>
      <path id="Trazado_105054" data-name="Trazado 105054" d="M3216.865,1656.6a5.349,5.349,0,0,0-1.081,3.455c.018.374,1.4.278,1.481,0S3216.865,1656.6,3216.865,1656.6Z" transform="translate(-3186.832 -1646.94)" fill="#fd9b73"/>
      <path id="Trazado_105055" data-name="Trazado 105055" d="M3241.178,1693.139c2.414-.45,2.414-4.15,2.414-4.15a5.739,5.739,0,0,1-2.221,2.442S3241.3,1692.166,3241.178,1693.139Z" transform="translate(-3207.356 -1673.112)" fill="#fd9b73"/>
    </g>
  </g>
</svg>
