<svg xmlns="http://www.w3.org/2000/svg" width="172" height="162" viewBox="0 0 172 162">
  <g id="Grupo_58800" data-name="Grupo 58800" transform="translate(-280 -546)">
    <g id="Right" transform="translate(279.972 546.152)">
      <rect id="BG" width="172" height="162" rx="5" transform="translate(0.029 -0.152)" fill="#fff" opacity="0.949"/>
    </g>
    <g id="programador" transform="translate(291.461 567.555)">
      <g id="Grupo_60765" data-name="Grupo 60765" transform="translate(15.295 1.755)">
        <g id="Grupo_60744" data-name="Grupo 60744" transform="translate(90.657 82.628)">
          <path id="Trazado_105303" data-name="Trazado 105303" d="M427.793,392.232a2.075,2.075,0,0,1-2,2.069H412.659c-2.17-5.849-4.159-14.039-4.159-14.039l5.512-19.621,2.4,1.1c7.939,3.635,11.381,10.824,11.381,18.6Z" transform="translate(-408.5 -360.641)" fill="#eb5468" fill-rule="evenodd"/>
        </g>
        <g id="Grupo_60745" data-name="Grupo 60745" transform="translate(32.982 36.744)">
          <path id="Trazado_105304" data-name="Trazado 105304" d="M170.906,177.778c-4.516-.046-8.9-2.434-8.9-6.845v-2.288a4.12,4.12,0,0,1,4.119-4.106h3.926l4.667,6.5C174.717,172.767,174.249,176.346,170.906,177.778Z" transform="translate(-162.005 -164.539)" fill="#ffbc85" fill-rule="evenodd"/>
        </g>
        <g id="Grupo_60746" data-name="Grupo 60746" transform="translate(41.027 2.514)">
          <path id="Trazado_105305" data-name="Trazado 105305" d="M211.7,38.664c6.674-7.3,7.922-16.5-3.482-20.421-8.363,3.94-11.826,12.277-11.826,23.466V52.473C206.046,50.553,209.79,46.342,211.7,38.664Z" transform="translate(-196.388 -18.243)" fill="#2b4d66" fill-rule="evenodd"/>
        </g>
        <g id="Grupo_60747" data-name="Grupo 60747" transform="translate(50.662)">
          <path id="Trazado_105306" data-name="Trazado 105306" d="M279.894,33.479c0-15.745-6.865-25.853-24.586-25.979h-2.8a30.318,30.318,0,0,0-12.754,2.514c-3.761,5.7-2.732,15.978,3.482,20.421a15.312,15.312,0,0,1,2.421.624c9.172,3.19,9.884,7.044,16.576,7.834,6.9.822,10.373,2.886,17.66,5.352Z" transform="translate(-237.563 -7.5)" fill="#375e7d" fill-rule="evenodd"/>
        </g>
        <g id="Grupo_60748" data-name="Grupo 60748" transform="translate(24.069 82.628)">
          <path id="Trazado_105307" data-name="Trazado 105307" d="M145.534,380.379s-4.212,10.607-6.5,13.922H125.9a2.074,2.074,0,0,1-1.99-2.069V380.346c0-7.773,3.442-14.97,11.381-18.6l2.4-1.1Z" transform="translate(-123.908 -360.641)" fill="#eb5468" fill-rule="evenodd"/>
        </g>
        <g id="Grupo_60749" data-name="Grupo 60749" transform="translate(41.028 22.761)">
          <path id="Trazado_105308" data-name="Trazado 105308" d="M248.353,118.762c-.856-9.246-10.141-12.171-17.045-12.993-6.692-.789-8.018,3-17.191-.192a15.311,15.311,0,0,0-2.421-.624c-9.226-1.526-15.307,7.309-15.307,13.809v7.88a18.457,18.457,0,0,0,.856,5.359A32.389,32.389,0,0,0,208,147.136l12.4,6.129,16.336-6.129A32.3,32.3,0,0,0,247.491,132a18.253,18.253,0,0,0,.862-5.359Z" transform="translate(-196.389 -104.779)" fill="#ffe5c1" fill-rule="evenodd"/>
        </g>
        <g id="Grupo_60750" data-name="Grupo 60750" transform="translate(88.317 36.744)">
          <path id="Trazado_105309" data-name="Trazado 105309" d="M411.219,170.934c0,4.411-4.391,6.8-8.907,6.845-2.057-1.666-3.812-3.685-3.812-5.41l4.674-7.829h3.92a4.121,4.121,0,0,1,4.125,4.106Z" transform="translate(-398.5 -164.54)" fill="#ffbc85" fill-rule="evenodd"/>
        </g>
        <g id="Grupo_60751" data-name="Grupo 60751" transform="translate(35.475 65.118)">
          <path id="Trazado_105310" data-name="Trazado 105310" d="M233.352,326.716H175.034l-2.341-37.46c-.312-1.87,1.552-3.449,3.449-3.449h56.1c1.9,0,3.767,1.578,3.455,3.449Z" transform="translate(-172.658 -285.807)" fill="#dddaec" fill-rule="evenodd"/>
        </g>
        <g id="Grupo_60752" data-name="Grupo 60752" transform="translate(34.07 106.027)">
          <path id="Trazado_105311" data-name="Trazado 105311" d="M227.4,470.909H171.781a5.145,5.145,0,0,1-5.127-5.133v-3.462a1.67,1.67,0,0,1,1.665-1.665h62.543a1.671,1.671,0,0,1,1.671,1.665v3.462A5.146,5.146,0,0,1,227.4,470.909Z" transform="translate(-166.654 -460.648)" fill="#beb9dd" fill-rule="evenodd"/>
        </g>
        <g id="Grupo_60753" data-name="Grupo 60753" transform="translate(63.75)">
          <path id="Trazado_105312" data-name="Trazado 105312" d="M322.743,33.479c0-15.745-6.865-25.853-24.586-25.979h-2.8c-.63.007-1.253.02-1.857.053,16.336.809,22.716,10.745,22.716,25.927v.949a12.287,12.287,0,0,1,6.526,9.816V33.479Z" transform="translate(-293.501 -7.5)" fill="#2b4d66" fill-rule="evenodd"/>
        </g>
        <g id="Grupo_60754" data-name="Grupo 60754" transform="translate(74.852 26.928)">
          <path id="Trazado_105313" data-name="Trazado 105313" d="M359.091,132.4a12.287,12.287,0,0,0-6.526-9.816v17.7a18.454,18.454,0,0,1-.856,5.359,32.388,32.388,0,0,1-10.758,15.135h6.52a32.3,32.3,0,0,0,10.758-15.135,18.253,18.253,0,0,0,.862-5.359Z" transform="translate(-340.952 -122.587)" fill="#fed1a3" fill-rule="evenodd"/>
        </g>
        <g id="Grupo_60755" data-name="Grupo 60755" transform="translate(79.389 106.027)">
          <path id="Trazado_105314" data-name="Trazado 105314" d="M380.9,465.775v-3.462a1.671,1.671,0,0,0-1.671-1.665H363.8a1.67,1.67,0,0,1,1.665,1.665v3.462a5.144,5.144,0,0,1-5.127,5.133h15.427A5.146,5.146,0,0,0,380.9,465.775Z" transform="translate(-360.342 -460.648)" fill="#a7a2d3" fill-rule="evenodd"/>
        </g>
        <g id="Grupo_60756" data-name="Grupo 60756" transform="translate(51.168 34.316)">
          <path id="Trazado_105315" data-name="Trazado 105315" d="M249.128,166.249h-7.375a2.032,2.032,0,0,1-2.023-2.03v-8.032a2.031,2.031,0,0,1,2.023-2.023h7.375a2.031,2.031,0,0,1,2.023,2.023v8.032a2.032,2.032,0,0,1-2.023,2.03Z" transform="translate(-239.73 -154.164)" fill="#9fd4fe" fill-rule="evenodd"/>
        </g>
        <g id="Grupo_60757" data-name="Grupo 60757" transform="translate(71.424 34.317)">
          <path id="Trazado_105316" data-name="Trazado 105316" d="M335.7,166.249h-7.375a2.037,2.037,0,0,1-2.023-2.03v-8.032a2.035,2.035,0,0,1,2.023-2.023H335.7a2.037,2.037,0,0,1,2.03,2.023v8.032A2.038,2.038,0,0,1,335.7,166.249Z" transform="translate(-326.298 -154.165)" fill="#9fd4fe" fill-rule="evenodd"/>
        </g>
        <g id="Grupo_60758" data-name="Grupo 60758" transform="translate(96.169 82.628)">
          <path id="Trazado_105317" data-name="Trazado 105317" d="M445.838,380.346c0-7.78-3.442-14.97-11.381-18.6l-2.4-1.1v5.047a31.631,31.631,0,0,1,7,20.176,33.45,33.45,0,0,1-1.068,8.437h5.85a2.075,2.075,0,0,0,2-2.069Z" transform="translate(-432.056 -360.641)" fill="#e5384f" fill-rule="evenodd"/>
        </g>
        <g id="Grupo_60759" data-name="Grupo 60759" transform="translate(56.879 34.317)">
          <path id="Trazado_105318" data-name="Trazado 105318" d="M269.846,160.081v-3.893a2.031,2.031,0,0,0-2.023-2.023h-3.687a2.031,2.031,0,0,1,2.023,2.023v8.032a2.032,2.032,0,0,1-2.023,2.03h3.688a2.032,2.032,0,0,0,2.023-2.03Z" transform="translate(-264.136 -154.165)" fill="#85beef" fill-rule="evenodd"/>
        </g>
        <g id="Grupo_60760" data-name="Grupo 60760" transform="translate(77.134 34.316)">
          <path id="Trazado_105319" data-name="Trazado 105319" d="M356.42,164.219v-8.032a2.037,2.037,0,0,0-2.029-2.023H350.7a2.037,2.037,0,0,1,2.03,2.023v8.032a2.038,2.038,0,0,1-2.03,2.03h3.688A2.038,2.038,0,0,0,356.42,164.219Z" transform="translate(-350.703 -154.164)" fill="#85beef" fill-rule="evenodd"/>
        </g>
        <path id="Trazado_105320" data-name="Trazado 105320" d="M298.189,349.79a4.059,4.059,0,1,0-4.059,4.059A4.059,4.059,0,0,0,298.189,349.79Z" transform="translate(-227.124 -266.592)" fill="#3bc3a4" fill-rule="evenodd"/>
        <g id="Grupo_60761" data-name="Grupo 60761" transform="translate(77.705 65.118)">
          <path id="Trazado_105321" data-name="Trazado 105321" d="M373.947,289.256c.312-1.87-1.559-3.449-3.455-3.449h-17.35c6.672,5.366,10.877,13.869,10.877,21.848s-.842,13.935-5.73,19.062h13.318Z" transform="translate(-353.142 -285.807)" fill="#beb9dd" fill-rule="evenodd"/>
        </g>
        <g id="Grupo_60762" data-name="Grupo 60762" transform="translate(0 57.026)">
          <path id="Trazado_105322" data-name="Trazado 105322" d="M65.578,273.489a22.268,22.268,0,1,0-22.271,22.272A22.267,22.267,0,0,0,65.578,273.489Z" transform="translate(-21.042 -251.224)" fill="#4dd0e1" fill-rule="evenodd"/>
        </g>
        <g id="Grupo_60763" data-name="Grupo 60763" transform="translate(14.405 57.026)">
          <path id="Trazado_105323" data-name="Trazado 105323" d="M112.739,273.488a22.291,22.291,0,0,0-26.271-21.907,22.276,22.276,0,0,1-3.86,42.753,22.241,22.241,0,0,0,7.859,1.426c.61,0,1.22-.026,1.817-.073A22.2,22.2,0,0,0,105.417,290c.212-.2.424-.4.637-.6A22.2,22.2,0,0,0,112.739,273.488Z" transform="translate(-82.608 -251.223)" fill="#a9ebf4" fill-rule="evenodd"/>
        </g>
        <g id="Grupo_60764" data-name="Grupo 60764" transform="translate(7.336 32.561)">
          <path id="Trazado_105324" data-name="Trazado 105324" d="M292.58,235.112a3.125,3.125,0,0,1-4.432,0,1.755,1.755,0,1,0-2.486,2.477,6.635,6.635,0,0,0,9.4,0,1.755,1.755,0,1,0-2.486-2.477Z" transform="translate(-230.692 -214.021)"/>
          <path id="Trazado_105325" data-name="Trazado 105325" d="M247.159,158.474V155.5a7.465,7.465,0,0,1,5.324,0v2.975a3.785,3.785,0,0,0,3.778,3.784h7.375a3.789,3.789,0,0,0,3.784-3.784v-8.032a3.785,3.785,0,0,0-3.784-3.778h-7.375a3.782,3.782,0,0,0-3.778,3.778v1.393a10.776,10.776,0,0,0-5.324,0v-1.393a3.782,3.782,0,0,0-3.778-3.778h-7.375a3.782,3.782,0,0,0-3.778,3.778v8.032a3.785,3.785,0,0,0,3.778,3.784h7.375A3.785,3.785,0,0,0,247.159,158.474Zm8.834-8.032a.282.282,0,0,1,.268-.268h7.375a.282.282,0,0,1,.275.268v8.032a.282.282,0,0,1-.275.275h-7.375a.282.282,0,0,1-.268-.275Zm-12.344,8.032a.279.279,0,0,1-.268.275h-7.375a.279.279,0,0,1-.268-.275v-8.032a.275.275,0,0,1,.268-.268h7.375a.275.275,0,0,1,.268.268Z" transform="translate(-190.151 -146.664)"/>
          <path id="Trazado_105326" data-name="Trazado 105326" d="M294.2,344.045a5.814,5.814,0,1,0-5.814,5.814A5.82,5.82,0,0,0,294.2,344.045Zm-8.118,0a2.3,2.3,0,1,1,2.3,2.3A2.307,2.307,0,0,1,286.081,344.045Z" transform="translate(-228.715 -293.408)"/>
          <path id="Trazado_105327" data-name="Trazado 105327" d="M299.161,404.673a1.755,1.755,0,0,0-1.755-1.755h-3.754a1.755,1.755,0,1,0,0,3.51h3.754A1.755,1.755,0,0,0,299.161,404.673Z" transform="translate(-235.86 -342.96)"/>
          <path id="Trazado_105328" data-name="Trazado 105328" d="M108.641,304.3a1.755,1.755,0,1,0-3.453-.628l-3.124,17.158a1.755,1.755,0,1,0,3.453.629Z" transform="translate(-90.421 -265.83)"/>
          <path id="Trazado_105329" data-name="Trazado 105329" d="M142.32,329.089a1.755,1.755,0,0,0,2.482,0l5.3-5.293a2.223,2.223,0,0,0,0-3.139l-5.3-5.3a1.755,1.755,0,0,0-2.482,2.482l4.386,4.386-4.385,4.38A1.755,1.755,0,0,0,142.32,329.089Z" transform="translate(-120.886 -275.495)"/>
          <path id="Trazado_105330" data-name="Trazado 105330" d="M60.826,315.359a1.755,1.755,0,0,0-2.482,0l-5.3,5.3a2.223,2.223,0,0,0,0,3.139l5.3,5.293a1.755,1.755,0,0,0,2.48-2.483l-4.385-4.38,4.386-4.386a1.755,1.755,0,0,0,0-2.482Z" transform="translate(-52.397 -275.494)"/>
        </g>
      </g>
      <path id="Trazado_105331" data-name="Trazado 105331" d="M114.713,83.942h0l.845-13.517a4.842,4.842,0,0,0-1.348-3.638,5.326,5.326,0,0,0-3.861-1.668h-9.141a33.706,33.706,0,0,0,7.49-11.7c4.849-.474,9.389-3.4,9.389-8.53V42.6a5.877,5.877,0,0,0-5.88-5.86h-2.165v-9.01a37.215,37.215,0,0,0-2.2-13.465,1.755,1.755,0,1,0-3.27,1.276,33.774,33.774,0,0,1,1.956,12.189v2.512c-3.131-3.437-8.25-5.67-15.085-6.484a18.523,18.523,0,0,0-6.869.536c-2.632.6-4.905,1.112-9.952-.643a16.933,16.933,0,0,0-2.27-.619c-5.035-3.9-5.836-12.5-3.015-17.361A29.48,29.48,0,0,1,81.254,3.51h2.1c7.779,0,13.643,2,17.43,5.953a1.755,1.755,0,1,0,2.534-2.429C98.845,2.366,92.129,0,83.356,0h-2.1a33.7,33.7,0,0,0-12.64,2.164,27.8,27.8,0,0,0-2.639,1.262A19.976,19.976,0,0,0,60.73,7.639c-4.089,4.631-6.162,11.392-6.162,20.1v9.01H52.4a5.874,5.874,0,0,0-5.874,5.86v2.288c0,5.134,4.541,8.058,9.389,8.53a33.727,33.727,0,0,0,7.486,11.7H55.528A24.018,24.018,0,1,0,37.56,105.073h.049v10.9a3.828,3.828,0,0,0,3.823,3.823h81.743A3.828,3.828,0,0,0,127,115.974V104.088C127,94.907,122.523,87.569,114.713,83.942ZM114.577,42.6v2.288c0,2.571-2.2,4.208-4.858,4.819a18.277,18.277,0,0,0,.323-3.334V40.254h2.165a2.363,2.363,0,0,1,2.37,2.351Zm-56.5-14.87c0-7.823,1.778-13.8,5.283-17.773a15.941,15.941,0,0,1,1.162-1.173,19.351,19.351,0,0,0-.111,6.419,17.634,17.634,0,0,0,3.028,7.709,13.86,13.86,0,0,0-5.873,2.435,16.421,16.421,0,0,0-3.49,3.4ZM50.033,44.893V42.6A2.36,2.36,0,0,1,52.4,40.254h2.172v6.124a18.29,18.29,0,0,0,.323,3.335C52.232,49.1,50.033,47.465,50.033,44.893Zm8.84,6.39c-.008-.031-.017-.061-.027-.091a16.739,16.739,0,0,1-.767-4.814V38.5A13.493,13.493,0,0,1,63.6,28.211a10.431,10.431,0,0,1,9.873-1.24c6,2.085,8.987,1.407,11.88.751a15.119,15.119,0,0,1,5.68-.473c6.648.792,14.722,3.406,15.5,11.352v7.778a16.668,16.668,0,0,1-.739,4.714,1.735,1.735,0,0,0-.083.275,30.4,30.4,0,0,1-9.667,13.752H68.56a30.372,30.372,0,0,1-9.688-13.836ZM37.56,101.563a20.419,20.419,0,1,1,3.737-.342,20.164,20.164,0,0,1-3.571.339C37.67,101.563,37.616,101.563,37.56,101.563Zm3.559,14.411V104.809a23.834,23.834,0,0,0,9.844-3.83l.316,5.049H51.03a3.423,3.423,0,0,0-3.42,3.42v3.462a6.849,6.849,0,0,0,.888,3.379H41.433a.318.318,0,0,1-.314-.314Zm68.991.314H54.492a3.379,3.379,0,0,1-3.372-3.379v-3.372H78.256a1.755,1.755,0,0,0,0-3.51H54.8l-.487-7.775a23.976,23.976,0,0,0,3.809-29.624h52.231a1.834,1.834,0,0,1,1.308.564,1.379,1.379,0,0,1,.4,1.02l-2.239,35.815H86.354a1.755,1.755,0,0,0,0,3.51H113.49v3.372a3.383,3.383,0,0,1-3.379,3.379Zm13.381-.314a.323.323,0,0,1-.316.314H116.11a6.845,6.845,0,0,0,.889-3.379v-3.462a3.427,3.427,0,0,0-3.426-3.42h-.241l1.142-18.271c7.808,4.3,9.018,11.987,9.018,16.332v11.886Z" transform="translate(0)"/>
    </g>
  </g>
</svg>
