<svg xmlns="http://www.w3.org/2000/svg" width="172" height="162" viewBox="0 0 172 162">
  <g id="Grupo_60831" data-name="Grupo 60831" transform="translate(-280 -471)">
    <g id="Grupo_60830" data-name="Grupo 60830">
      <g id="Grupo_60783" data-name="Grupo 60783" transform="translate(0 -75)">
        <g id="Right" transform="translate(279.972 546.152)">
          <rect id="BG" width="172" height="162" rx="5" transform="translate(0.029 -0.152)" fill="#fff" opacity="0.949"/>
        </g>
      </g>
      <g id="coding-programing-layout-customize-web_design" data-name="coding-programing-layout-customize-web design" transform="translate(312.1 498.1)">
        <path id="Trazado_105268" data-name="Trazado 105268" d="M100.663,3H6.488A3.488,3.488,0,0,0,3,6.488V16.952H104.151V6.488A3.488,3.488,0,0,0,100.663,3Z" transform="translate(0.744 0.744)" fill="#4dd0e1"/>
        <path id="Trazado_105269" data-name="Trazado 105269" d="M104.151,11V94.711a3.5,3.5,0,0,1-3.488,3.488H6.488A3.5,3.5,0,0,1,3,94.711V11Z" transform="translate(0.744 6.696)" fill="#d1e7f8"/>
        <path id="Trazado_105270" data-name="Trazado 105270" d="M11,98.2H94.711A3.5,3.5,0,0,0,98.2,94.711V11A87.455,87.455,0,0,1,11,98.2Z" transform="translate(6.696 6.696)" fill="#c2dff6"/>
        <path id="Trazado_105271" data-name="Trazado 105271" d="M36,17H69.136v8.72H36Z" transform="translate(25.295 11.16)" fill="#ffca28"/>
        <path id="Trazado_105272" data-name="Trazado 105272" d="M32,28H54.672V48.928H32Z" transform="translate(22.319 19.344)" fill="#4dd0e1"/>
        <path id="Trazado_105273" data-name="Trazado 105273" d="M49,28H62.952V48.928H49Z" transform="translate(34.967 19.344)" fill="#ffcd00"/>
        <path id="Trazado_105274" data-name="Trazado 105274" d="M32,45H75.6V65.928H32Z" transform="translate(22.319 31.991)" fill="#4dd0e1"/>
        <path id="Trazado_105275" data-name="Trazado 105275" d="M3,11H53.575V98.2H6.488A3.488,3.488,0,0,1,3,94.711Z" transform="translate(0.744 6.696)" fill="#ffeb99"/>
        <path id="Trazado_105276" data-name="Trazado 105276" d="M11,64.471H47.624V56.335A86.37,86.37,0,0,1,11,64.471Z" transform="translate(6.696 40.424)" fill="#ffe477"/>
        <g id="Grupo_60743" data-name="Grupo 60743" transform="translate(2 2)">
          <path id="Trazado_105277" data-name="Trazado 105277" d="M101.407,2H7.232A5.248,5.248,0,0,0,2,7.232v94.175a5.248,5.248,0,0,0,5.232,5.232h94.175a5.248,5.248,0,0,0,5.232-5.232V7.232A5.248,5.248,0,0,0,101.407,2ZM52.575,103.151H7.232a1.744,1.744,0,0,1-1.744-1.744V19.44H52.575Zm50.575-1.744a1.744,1.744,0,0,1-1.744,1.744H56.063V99.663H97.919a1.744,1.744,0,0,0,1.744-1.744V76.991a1.744,1.744,0,0,0-1.744-1.744H56.063V70.015H76.991a1.744,1.744,0,0,0,1.744-1.744V47.344A1.744,1.744,0,0,0,76.991,45.6H56.063V19.44h47.088ZM56.063,96.175V78.735H96.175v17.44Zm0-29.648V49.088H75.247v17.44Zm47.088-50.575H5.488V7.232A1.744,1.744,0,0,1,7.232,5.488h94.175a1.744,1.744,0,0,1,1.744,1.744Z" transform="translate(-2 -2)" fill="#21214b"/>
          <path id="Trazado_105278" data-name="Trazado 105278" d="M9.488,6H7.744a1.744,1.744,0,0,0,0,3.488H9.488A1.744,1.744,0,1,0,9.488,6Z" transform="translate(0.976 0.976)" fill="#21214b"/>
          <path id="Trazado_105279" data-name="Trazado 105279" d="M13.488,6H11.744a1.744,1.744,0,1,0,0,3.488h1.744a1.744,1.744,0,1,0,0-3.488Z" transform="translate(3.952 0.976)" fill="#21214b"/>
          <path id="Trazado_105280" data-name="Trazado 105280" d="M17.488,6H15.744a1.744,1.744,0,1,0,0,3.488h1.744a1.744,1.744,0,1,0,0-3.488Z" transform="translate(6.928 0.976)" fill="#21214b"/>
          <path id="Trazado_105281" data-name="Trazado 105281" d="M85.527,7.744A1.744,1.744,0,0,0,83.783,6H22.744a1.744,1.744,0,1,0,0,3.488H83.783A1.744,1.744,0,0,0,85.527,7.744Z" transform="translate(12.136 0.976)" fill="#21214b"/>
          <path id="Trazado_105282" data-name="Trazado 105282" d="M19.293,24.688a1.744,1.744,0,0,0,2.419.483l5.232-3.488a1.744,1.744,0,0,0,0-2.9l-5.232-3.488a1.744,1.744,0,0,0-1.936,2.9l3.061,2.037-3.055,2.037a1.744,1.744,0,0,0-.488,2.419Z" transform="translate(10.648 7.672)" fill="#21214b"/>
          <path id="Trazado_105283" data-name="Trazado 105283" d="M6.778,21.683l5.232,3.488a1.744,1.744,0,0,0,1.936-2.9l-3.061-2.037L13.941,18.2a1.744,1.744,0,1,0-1.936-2.9L6.773,18.781a1.744,1.744,0,0,0,0,2.9Z" transform="translate(0.974 7.672)" fill="#21214b"/>
          <path id="Trazado_105284" data-name="Trazado 105284" d="M12.871,28.478a1.723,1.723,0,0,0,.872.23,1.744,1.744,0,0,0,1.516-.872l6.976-12.208a1.744,1.744,0,1,0-3.028-1.73L12.231,26.106A1.744,1.744,0,0,0,12.871,28.478Z" transform="translate(5.441 6.171)" fill="#21214b"/>
          <path id="Trazado_105285" data-name="Trazado 105285" d="M7.744,27.488h3.488a1.744,1.744,0,1,0,0-3.488H7.744a1.744,1.744,0,0,0,0,3.488Z" transform="translate(0.976 14.368)" fill="#21214b"/>
          <path id="Trazado_105286" data-name="Trazado 105286" d="M7.744,31.488H32.16a1.744,1.744,0,1,0,0-3.488H7.744a1.744,1.744,0,0,0,0,3.488Z" transform="translate(0.976 17.344)" fill="#21214b"/>
          <path id="Trazado_105287" data-name="Trazado 105287" d="M13.744,27.488H39.9A1.744,1.744,0,1,0,39.9,24H13.744a1.744,1.744,0,0,0,0,3.488Z" transform="translate(5.44 14.368)" fill="#21214b"/>
          <path id="Trazado_105288" data-name="Trazado 105288" d="M7.744,43.488h3.488a1.744,1.744,0,0,0,0-3.488H7.744a1.744,1.744,0,0,0,0,3.488Z" transform="translate(0.976 26.271)" fill="#21214b"/>
          <path id="Trazado_105289" data-name="Trazado 105289" d="M44.368,44H7.744a1.744,1.744,0,0,0,0,3.488H44.368a1.744,1.744,0,1,0,0-3.488Z" transform="translate(0.976 29.247)" fill="#21214b"/>
          <path id="Trazado_105290" data-name="Trazado 105290" d="M27.7,40H13.744a1.744,1.744,0,0,0,0,3.488H27.7A1.744,1.744,0,0,0,27.7,40Z" transform="translate(5.44 26.271)" fill="#21214b"/>
          <path id="Trazado_105291" data-name="Trazado 105291" d="M7.744,55.488h3.488a1.744,1.744,0,0,0,0-3.488H7.744a1.744,1.744,0,0,0,0,3.488Z" transform="translate(0.976 35.199)" fill="#21214b"/>
          <path id="Trazado_105292" data-name="Trazado 105292" d="M39.9,52H13.744a1.744,1.744,0,0,0,0,3.488H39.9A1.744,1.744,0,1,0,39.9,52Z" transform="translate(5.44 35.199)" fill="#21214b"/>
          <path id="Trazado_105293" data-name="Trazado 105293" d="M7.744,39.488H21.7A1.744,1.744,0,1,0,21.7,36H7.744a1.744,1.744,0,0,0,0,3.488Z" transform="translate(0.976 23.295)" fill="#21214b"/>
          <path id="Trazado_105294" data-name="Trazado 105294" d="M23.232,36H19.744a1.744,1.744,0,1,0,0,3.488h3.488a1.744,1.744,0,1,0,0-3.488Z" transform="translate(9.904 23.295)" fill="#21214b"/>
          <path id="Trazado_105295" data-name="Trazado 105295" d="M7.744,51.488H21.7A1.744,1.744,0,1,0,21.7,48H7.744a1.744,1.744,0,1,0,0,3.488Z" transform="translate(0.976 32.223)" fill="#21214b"/>
          <path id="Trazado_105296" data-name="Trazado 105296" d="M23.232,51.488a1.744,1.744,0,1,0,0-3.488H19.744a1.744,1.744,0,1,0,0,3.488Z" transform="translate(9.904 32.223)" fill="#21214b"/>
          <path id="Trazado_105297" data-name="Trazado 105297" d="M21.7,56H7.744a1.744,1.744,0,0,0,0,3.488H21.7A1.744,1.744,0,1,0,21.7,56Z" transform="translate(0.976 38.175)" fill="#21214b"/>
          <path id="Trazado_105298" data-name="Trazado 105298" d="M23.232,56H19.744a1.744,1.744,0,0,0,0,3.488h3.488a1.744,1.744,0,1,0,0-3.488Z" transform="translate(9.904 38.175)" fill="#21214b"/>
          <path id="Trazado_105299" data-name="Trazado 105299" d="M7.744,35.488h3.488a1.744,1.744,0,0,0,0-3.488H7.744a1.744,1.744,0,0,0,0,3.488Z" transform="translate(0.976 20.319)" fill="#21214b"/>
          <path id="Trazado_105300" data-name="Trazado 105300" d="M39.9,33.744A1.744,1.744,0,0,0,38.16,32H13.744a1.744,1.744,0,0,0,0,3.488H38.16A1.744,1.744,0,0,0,39.9,33.744Z" transform="translate(5.44 20.319)" fill="#21214b"/>
          <path id="Trazado_105301" data-name="Trazado 105301" d="M36.744,28.208H69.88a1.744,1.744,0,0,0,1.744-1.744v-8.72A1.744,1.744,0,0,0,69.88,16H36.744A1.744,1.744,0,0,0,35,17.744v8.72A1.744,1.744,0,0,0,36.744,28.208Zm1.744-8.72H68.136V24.72H38.488Z" transform="translate(22.551 8.416)" fill="#21214b"/>
          <path id="Trazado_105302" data-name="Trazado 105302" d="M48,28.744V49.672a1.744,1.744,0,0,0,1.744,1.744H63.7a1.744,1.744,0,0,0,1.744-1.744V28.744A1.744,1.744,0,0,0,63.7,27H49.744A1.744,1.744,0,0,0,48,28.744Zm3.488,1.744H61.952v17.44H51.488Z" transform="translate(32.223 16.6)" fill="#21214b"/>
        </g>
      </g>
    </g>
  </g>
</svg>
