<svg xmlns="http://www.w3.org/2000/svg" width="143" height="89" viewBox="0 0 143 89">
  <g id="Grupo_60831" data-name="Grupo 60831" transform="translate(-200 -1996)">
    <g id="Grupo_60693" data-name="Grupo 60693" transform="translate(0 -1134)">
      <rect id="Rectángulo_7643" data-name="Rectángulo 7643" width="143" height="89" rx="7" transform="translate(200 3130)" fill="#fff"/>
    </g>
    <g id="web-maintenance" transform="translate(236 2005.278)">
      <path id="XMLID_1045_" d="M166.976,467.54h24.676v-2.772A2.772,2.772,0,0,0,188.88,462H169.748a2.772,2.772,0,0,0-2.772,2.772Z" transform="translate(-143.835 -397.968)" fill="#d3d7df"/>
      <path id="XMLID_1043_" d="M216,418h11.087v6.1H216Z" transform="translate(-186.065 -360.068)" fill="#b5bcc9"/>
      <path id="XMLID_1041_" d="M50.639,90H75.414a2.772,2.772,0,0,1,2.772,2.772v39.914a2.772,2.772,0,0,1-2.772,2.772H12.772A2.772,2.772,0,0,1,10,132.685V92.772A2.772,2.772,0,0,1,12.772,90H30.084" transform="translate(-8.614 -77.527)" fill="#dff6fc"/>
      <path id="XMLID_1040_" d="M75.414,359.422H12.772A2.772,2.772,0,0,1,10,356.65V350H78.186v6.652A2.772,2.772,0,0,1,75.414,359.422Z" transform="translate(-8.614 -301.492)" fill="#d3d7df"/>
      <path id="XMLID_1084_" d="M117.219,57.121H64V12.772A2.772,2.772,0,0,1,66.772,10h47.675a2.772,2.772,0,0,1,2.772,2.772Z" transform="translate(-55.13 -8.614)" fill="#f9f9f9"/>
      <path id="XMLID_3080_" d="M165.656,227.259h2.883v-5.953h-2.883a14.113,14.113,0,0,0-1.964-4.74l2.039-2.039-4.208-4.208-2.039,2.039a14.12,14.12,0,0,0-4.74-1.964v-2.883h-5.95v2.883a14.113,14.113,0,0,0-4.739,1.964l-2.039-2.039-4.208,4.208,2.039,2.039a14.12,14.12,0,0,0-1.964,4.74H135v5.953h30.656Z" transform="translate(-116.29 -178.753)" fill="#ffca28"/>
      <path id="XMLID_3079_" d="M226.216,297.026a5.544,5.544,0,1,0-9.355,0Z" transform="translate(-186.059 -248.522)" fill="#fff"/>
      <path id="XMLID_1083_" d="M114.447,10H66.772A2.772,2.772,0,0,0,64,12.772v8.315h53.219V12.772A2.772,2.772,0,0,0,114.447,10Z" transform="translate(-55.13 -8.614)" fill="#fff"/>
      <path id="XMLID_1082_" d="M117.219,21.087H64V12.772A2.772,2.772,0,0,1,66.772,10h47.675a2.772,2.772,0,0,1,2.772,2.772Z" transform="translate(-55.13 -8.614)" fill="#4dd0e1"/>
      <path id="XMLID_88_" d="M67,90h52.388" transform="translate(-57.713 -77.527)" fill="#231f20"/>
      <path id="XMLID_294_" d="M66.8,11.087H63.474V4.158A4.162,4.162,0,0,0,59.316,0H11.642A4.162,4.162,0,0,0,7.484,4.158v6.929H4.158A4.162,4.162,0,0,0,0,15.245V55.158a4.162,4.162,0,0,0,4.158,4.158H28.55v3.326H25.913A4.162,4.162,0,0,0,21.755,66.8v2.772a1.386,1.386,0,0,0,1.386,1.386H47.817A1.386,1.386,0,0,0,49.2,69.572V66.8a4.162,4.162,0,0,0-4.158-4.158H42.409V59.316H66.8a4.162,4.162,0,0,0,4.158-4.158V15.245A4.162,4.162,0,0,0,66.8,11.087Zm0,2.772a1.387,1.387,0,0,1,1.386,1.386V47.12H63.474V13.859ZM11.642,2.772H59.316A1.387,1.387,0,0,1,60.7,4.158v6.929H10.256V4.158A1.387,1.387,0,0,1,11.642,2.772ZM4.158,13.859H7.484V24.252a1.386,1.386,0,1,0,2.772,0V13.859H60.7V47.12H53.634V42.553a1.386,1.386,0,0,0-1.386-1.386h-1.8a15.42,15.42,0,0,0-1.3-3.137l1.276-1.276a1.386,1.386,0,0,0,0-1.96l-4.208-4.208a1.386,1.386,0,0,0-1.96,0l-1.276,1.276a15.409,15.409,0,0,0-3.137-1.3v-1.8a1.386,1.386,0,0,0-1.386-1.386H32.5a1.386,1.386,0,0,0-1.386,1.386v1.8a15.42,15.42,0,0,0-3.137,1.3L26.7,30.587a1.386,1.386,0,0,0-1.96,0l-4.208,4.208a1.386,1.386,0,0,0,0,1.96l1.276,1.276a15.417,15.417,0,0,0-1.3,3.137h-1.8a1.386,1.386,0,0,0-1.386,1.386V47.12H10.256v-10.4a1.386,1.386,0,0,0-2.772,0v10.4H2.772V15.245a1.387,1.387,0,0,1,1.386-1.386ZM24.537,36.834l-1.059-1.059,2.248-2.248,1.059,1.059a1.386,1.386,0,0,0,1.734.183A12.694,12.694,0,0,1,32.793,33a1.386,1.386,0,0,0,1.1-1.355v-1.5h3.179v1.5A1.386,1.386,0,0,0,38.165,33a12.694,12.694,0,0,1,4.275,1.772,1.386,1.386,0,0,0,1.734-.183l1.059-1.059,2.248,2.248-1.059,1.059a1.386,1.386,0,0,0-.183,1.734,12.7,12.7,0,0,1,1.772,4.275,1.386,1.386,0,0,0,1.355,1.1h1.5V47.12h-8.64a6.93,6.93,0,1,0-13.487,0H20.1V43.939h1.5a1.386,1.386,0,0,0,1.355-1.1,12.694,12.694,0,0,1,1.772-4.275,1.386,1.386,0,0,0-.183-1.734Zm6.784,8.695a4.159,4.159,0,1,1,8,1.592H31.641A4.135,4.135,0,0,1,31.32,45.528ZM46.431,66.8v1.386h-21.9V66.8a1.387,1.387,0,0,1,1.386-1.386H45.045A1.387,1.387,0,0,1,46.431,66.8Zm-6.794-4.158H31.321V59.316h8.315Zm27.164-6.1H4.158a1.387,1.387,0,0,1-1.386-1.386V49.892H68.186v5.266A1.387,1.387,0,0,1,66.8,56.544Z"/>
      <path id="XMLID_1617_" d="M277.386,42.772h14.968a1.386,1.386,0,0,0,0-2.772H277.386a1.386,1.386,0,0,0,0,2.772Z" transform="translate(-237.749 -34.456)"/>
      <path id="XMLID_1618_" d="M153.386,42.772a1.386,1.386,0,1,0-.98-.406A1.4,1.4,0,0,0,153.386,42.772Z" transform="translate(-130.934 -34.456)"/>
      <path id="XMLID_1620_" d="M109.386,42.772a1.386,1.386,0,1,0-.98-.406A1.4,1.4,0,0,0,109.386,42.772Z" transform="translate(-93.032 -34.456)"/>
      <path id="XMLID_1623_" d="M197.386,42.772a1.386,1.386,0,1,0-.98-.406A1.4,1.4,0,0,0,197.386,42.772Z" transform="translate(-168.836 -34.456)"/>
      <path id="XMLID_1624_" d="M103.386,130.77h3.3a1.386,1.386,0,1,0,0-2.772h-3.3a1.386,1.386,0,0,0,0,2.772Z" transform="translate(-87.864 -110.259)"/>
      <path id="XMLID_1626_" d="M171.184,130.77H183.9a1.386,1.386,0,0,0,0-2.772H171.184a1.386,1.386,0,0,0,0,2.772Z" transform="translate(-146.266 -110.259)"/>
      <path id="XMLID_1627_" d="M103.386,178.768h8.038a1.386,1.386,0,1,0,0-2.772h-8.038a1.386,1.386,0,0,0,0,2.772Z" transform="translate(-87.864 -151.605)"/>
      <path id="XMLID_1628_" d="M306.922,130.77h11.706a1.386,1.386,0,0,0,0-2.772H306.922a1.386,1.386,0,1,0,0,2.772Z" transform="translate(-263.192 -110.259)"/>
      <path id="XMLID_1633_" d="M332.432,176h-9.485a1.386,1.386,0,0,0,0,2.772h9.485a1.386,1.386,0,0,0,0-2.772Z" transform="translate(-276.996 -151.605)"/>
      <path id="XMLID_1635_" d="M55.386,212.762a1.386,1.386,0,1,0-.98-.406A1.4,1.4,0,0,0,55.386,212.762Z" transform="translate(-46.516 -180.888)"/>
    </g>
  </g>
</svg>
